<svg width="28" height="36" viewBox="0 0 28 36" fill="none" xmlns="http://www.w3.org/2000/svg">
<path fill-rule="evenodd" clip-rule="evenodd" d="M24.5 24.5457C24.5 28.7716 20.2801 33 14 33C7.71991 33 3.5 28.7716 3.5 24.5457C3.5 20.1624 6.3509 14.7036 9.70177 9.95146C11.2163 7.80358 12.7363 5.93264 13.925 4.55052C15.1362 6.04064 16.7079 8.06907 18.2739 10.3583C19.9067 12.7451 21.4948 15.3597 22.665 17.9044C23.8566 20.4957 24.5 22.7709 24.5 24.5457ZM0.5 24.5457C0.5 16.3905 8.19684 6.55645 11.9672 2.22845C13.1902 0.824557 14 0 14 0C14 0 14.7759 0.857652 15.9556 2.29432C19.6969 6.85049 27.5 17.2301 27.5 24.5457C27.5 30.8717 21.4558 36 14 36C6.54416 36 0.5 30.8717 0.5 24.5457ZM7.24751 19.5H10.4749C9.86763 20.8859 9.5 22.2002 9.5 23.3183C9.5 25.0352 11.1795 27 14 27V30C9.85786 30 6.5 27.0085 6.5 23.3183C6.5 22.0869 6.7865 20.7899 7.24751 19.5Z" fill="url(#paint0_linear_56_89)"/>
<defs>
<linearGradient id="paint0_linear_56_89" x1="14" y1="0" x2="14" y2="36" gradientUnits="userSpaceOnUse">
<stop stop-color="white"/>
<stop offset="1" stop-color="#5193DE"/>
</linearGradient>
</defs>
</svg>
