<svg width="33" height="26" viewBox="0 0 33 26" fill="none" xmlns="http://www.w3.org/2000/svg">
<path fill-rule="evenodd" clip-rule="evenodd" d="M13.7502 5.46595L13.7502 5.4579L5.96666 5.4578L13.4328 2.77286L13.432 2.77065C13.575 2.73477 13.723 2.722 13.8703 2.73294C13.8897 2.73438 13.9091 2.73623 13.9285 2.7385L13.9288 2.73853C14.131 2.76224 14.3254 2.83036 14.4979 2.93797L14.4979 2.93799C14.6704 3.04561 14.8168 3.19003 14.9264 3.36083L14.9266 3.3611C15.0362 3.53191 15.1062 3.72481 15.1318 3.92587L15.1318 3.92625C15.1573 4.1274 15.1376 4.33167 15.0741 4.52429L15.0741 4.52445C15.0105 4.71712 14.9048 4.89333 14.7644 5.04033L14.7643 5.04046C14.624 5.18739 14.4527 5.30146 14.2627 5.3744L14.2623 5.37455C14.2444 5.3814 14.2264 5.38787 14.2083 5.39397C14.0608 5.44364 13.9058 5.46796 13.7502 5.46595ZM0 4.69309V8.19478L13.7219 8.19495C14.243 8.20077 14.7614 8.108 15.2491 7.92075L15.2495 7.92061C15.6207 7.77803 15.9682 7.58302 16.2816 7.34245C16.4485 7.21435 16.6057 7.07332 16.7516 6.92041L16.7518 6.92028C17.1719 6.48019 17.4885 5.95267 17.6787 5.37586L17.6788 5.37571C17.869 4.7989 17.9281 4.18723 17.8518 3.58491L17.8517 3.58452C17.7754 2.98219 17.5655 2.40427 17.2373 1.89256L17.2372 1.89228C16.9089 1.38051 16.4704 0.94777 15.9536 0.625353L15.9536 0.625337C15.7739 0.513294 15.5864 0.415548 15.3927 0.332718C15.0291 0.177195 14.6438 0.0742602 14.2485 0.0280118L14.2482 0.0279776C13.6593 -0.0408829 13.0626 0.0177545 12.4989 0.199635L12.4985 0.198469L12.4563 0.213641L12.4513 0.215308L12.4508 0.2155L12.4508 0.215623L0 4.69309ZM0 16.4183V19.2297L18.158 25.6586L18.1578 25.6592C18.8149 25.9201 19.5218 26.0336 20.228 25.9914C20.4995 25.9752 20.7684 25.9362 21.0319 25.875C21.4535 25.7772 21.8612 25.6229 22.2435 25.4153C22.8646 25.0781 23.4034 24.6086 23.8213 24.0403C24.2393 23.4721 24.5262 22.819 24.6616 22.1277C24.797 21.4365 24.7776 20.7239 24.6047 20.041C24.4318 19.358 24.1098 18.7214 23.6614 18.1766C23.3855 17.8412 23.0659 17.5457 22.712 17.2973C22.4909 17.1422 22.2565 17.0054 22.011 16.8888C21.3734 16.5861 20.6767 16.4269 19.9703 16.4224V16.4184L0 16.4183ZM19.9517 19.1554L7.99576 19.1554L19.2283 23.1323L19.2272 23.1352C19.4942 23.2332 19.7789 23.2752 20.0634 23.2582C20.3658 23.2401 20.6605 23.1559 20.9265 23.0115C21.1924 22.8671 21.4231 22.666 21.6021 22.4227C21.7811 22.1793 21.904 21.8997 21.962 21.6037C22.0199 21.3076 22.0116 21.0025 21.9376 20.7101C21.8636 20.4176 21.7256 20.145 21.5337 19.9117C21.3417 19.6784 21.1004 19.4901 20.8269 19.3603C20.5539 19.2306 20.2555 19.1624 19.9529 19.1605L19.9517 19.1605L19.9517 19.16L19.9517 19.1554ZM26.1498 5.81319L26.1486 5.81387L24.7962 3.43084L24.7947 3.42808L24.7974 3.42656C25.5296 3.0153 26.3468 2.77661 27.1862 2.72886C27.3079 2.72193 27.4297 2.71904 27.5512 2.72017C28.2687 2.72682 28.9791 2.87319 29.6421 3.15228C30.4174 3.47867 31.1072 3.97786 31.6581 4.61141C32.2091 5.24496 32.6067 5.99596 32.8202 6.80656C33.0337 7.61716 33.0574 8.46573 32.8896 9.2869C32.7217 10.1081 32.3668 10.8799 31.8521 11.543C31.412 12.11 30.8651 12.5845 30.2433 12.9408C30.1379 13.0012 30.0304 13.0582 29.9208 13.1116C29.1649 13.4805 28.3341 13.6717 27.4923 13.6705V13.6701H0V10.9333H27.4962L27.4962 10.9303C27.9167 10.9309 28.3317 10.8354 28.7093 10.6511C29.0868 10.4669 29.4169 10.1988 29.674 9.86757C29.9311 9.53633 30.1084 9.15075 30.1923 8.74055C30.2761 8.33035 30.2643 7.90646 30.1576 7.50153C30.051 7.09661 29.8524 6.72146 29.5771 6.40498C29.3019 6.0885 28.9574 5.83914 28.5701 5.6761C28.1828 5.51306 27.763 5.44069 27.3432 5.46458C26.9239 5.48844 26.5156 5.6077 26.1498 5.81319Z" fill="url(#paint0_linear_11_721)"/>
<defs>
<linearGradient id="paint0_linear_11_721" x1="16.5" y1="0" x2="16.5" y2="26" gradientUnits="userSpaceOnUse">
<stop stop-color="#CED3EA"/>
<stop offset="1" stop-color="#7E83A9"/>
</linearGradient>
</defs>
</svg>
