<svg width="242" height="245" viewBox="0 0 242 245" fill="none" xmlns="http://www.w3.org/2000/svg">
<path d="M49.4485 0C49.4485 0 16.1238 18.5019 13.5964 19.5043C13.5964 19.5043 1.16228 55.7936 0.154541 58.5929C0.154541 58.5929 18.6458 92.9521 20.1067 95.9167L63.8022 109.284C63.8022 109.284 96.0232 89.5556 101.046 88.132C101.046 88.132 109.007 50.0298 109.545 48.2702C109.545 48.2702 90.2593 16.0332 89.6302 12.2902C89.6302 12.2902 50.6802 0.81579 49.4485 0Z" fill="#F5F5F5"/>
<path d="M88.9745 11.7623C89.0331 11.8103 82.1336 20.1441 73.5651 30.3655C64.9967 40.5869 57.9958 48.8621 57.9371 48.7981C57.8785 48.7341 64.778 40.4163 73.3518 30.2002C81.9256 19.9842 88.9158 11.7143 88.9745 11.7623Z" fill="#E0E0E0"/>
<path d="M110.036 48.201L109.913 48.137L109.582 47.929C109.411 47.8138 109.233 47.7087 109.049 47.6144C108.797 47.4747 108.537 47.3483 108.271 47.2359C106.548 46.5415 104.706 46.1884 102.848 46.1961C100.507 46.1322 97.7242 46.4307 94.6263 46.644L84.5596 47.3798L66.2603 48.6595L60.715 49.0167L59.2061 49.0967H58.8115C58.7673 49.1023 58.7225 49.1023 58.6782 49.0967C58.7225 49.0911 58.7673 49.0911 58.8115 49.0967L59.2008 49.0541L60.7097 48.9208L66.2496 48.4729L84.5382 47.1132L94.6103 46.3988C97.7028 46.2015 100.475 45.9242 102.854 46.0095C104.723 46.0168 106.572 46.3975 108.292 47.1292C108.919 47.4053 109.506 47.7659 110.036 48.201Z" fill="#E0E0E0"/>
<path d="M101.457 88.3506C101.416 88.321 101.378 88.287 101.345 88.2493L101.03 87.9348L99.8463 86.7191C98.8279 85.6527 97.3403 84.1277 95.4741 82.2669C93.608 80.406 91.3525 78.2199 88.7985 75.8685C86.2445 73.5171 83.3866 70.9418 80.3207 68.3398C77.2548 65.7378 74.2583 63.3384 71.507 61.2003C68.7557 59.0622 66.223 57.2013 64.0796 55.6657C61.9361 54.1301 60.1872 52.9091 58.9662 52.0773L57.5692 51.0802L57.212 50.819C57.132 50.7603 57.0894 50.7283 57.0947 50.723C57.1406 50.7451 57.1852 50.77 57.228 50.7976L57.6012 51.0322L59.0302 51.9547C60.2672 52.7598 62.0321 53.9595 64.1915 55.4738C66.351 56.988 68.889 58.8489 71.6563 60.9657C74.4236 63.0825 77.4201 65.4925 80.4967 68.0945C83.5732 70.6965 86.4151 73.2665 88.9691 75.6499C91.5232 78.0333 93.7679 80.2354 95.6074 82.1229C97.447 84.0104 98.9292 85.5514 99.921 86.6444L101.067 87.8974L101.361 88.228C101.43 88.3187 101.462 88.3453 101.457 88.3506Z" fill="#E0E0E0"/>
<path d="M64.6073 109.295C64.5992 109.245 64.5992 109.195 64.6073 109.145C64.6073 109.033 64.5753 108.889 64.554 108.713L64.378 107.028C64.2287 105.552 64.0155 103.445 63.7542 100.849C63.221 95.6287 62.4638 88.4199 61.5254 80.47C60.587 72.52 59.6432 65.3325 58.9394 60.1339C58.5875 57.5479 58.3049 55.4524 58.1076 53.9754C58.0117 53.2663 57.937 52.7064 57.8837 52.3012C57.8837 52.1253 57.8464 51.9813 57.8357 51.864C57.8276 51.8146 57.8276 51.7641 57.8357 51.7147C57.8497 51.7619 57.8604 51.81 57.8677 51.8587C57.8677 51.976 57.9157 52.1146 57.9477 52.2959C58.0117 52.6976 58.1023 53.2521 58.2196 53.9594C58.4489 55.4097 58.7528 57.5105 59.142 60.1072C59.8938 65.3005 60.8643 72.4827 61.808 80.438C62.7518 88.3933 63.4823 95.6021 63.9408 100.827C64.1807 103.44 64.3674 105.557 64.474 107.023C64.5273 107.738 64.57 108.303 64.5966 108.708C64.5966 108.884 64.5966 109.028 64.5966 109.145C64.6072 109.194 64.6108 109.245 64.6073 109.295Z" fill="#E0E0E0"/>
<path d="M57.0359 50.3444C57.0095 50.3879 56.9791 50.429 56.9453 50.467L56.652 50.7976L55.5056 52.0613C54.5139 53.1277 53.0903 54.7272 51.3414 56.7107C47.8436 60.6511 43.0982 66.1696 38.0595 72.4294C33.0208 78.6891 28.6486 84.5169 25.5773 88.7825C24.0257 90.9153 22.7834 92.6428 21.9303 93.8425C21.5091 94.429 21.1785 94.9089 20.9439 95.2235L20.6773 95.5754C20.6501 95.6182 20.6179 95.6576 20.5813 95.6927C20.5813 95.6927 20.5813 95.6447 20.6559 95.5594C20.7306 95.4741 20.7946 95.3408 20.8959 95.1915L21.845 93.7839C22.6661 92.5575 23.8871 90.8086 25.4174 88.6652C28.4779 84.373 32.8288 78.5345 37.8675 72.2534C42.9062 65.9724 47.6837 60.4858 51.1974 56.5774C52.9623 54.6206 54.3966 53.0583 55.4257 51.9866L56.5987 50.7603L56.9079 50.4457C56.9773 50.3764 57.0359 50.339 57.0359 50.3444Z" fill="#E0E0E0"/>
<path d="M56.5828 50.0511C56.5333 50.0592 56.4829 50.0592 56.4335 50.0511L56.0016 50.0885L54.3327 50.2164L48.2009 50.643C43.0236 51.0109 35.8681 51.5281 28.0141 52.5092C24.0845 53.0104 20.3574 53.5756 16.9876 54.2207C15.3027 54.5567 13.7031 54.8552 12.1889 55.2018C11.4477 55.3724 10.7226 55.5217 10.0561 55.6924L8.07792 56.1829C6.81425 56.4815 5.6892 56.8174 4.69746 57.0893C3.70571 57.3613 2.8526 57.6225 2.15944 57.8358L0.559855 58.3157L0.143962 58.4383C0.097688 58.4556 0.0492379 58.4664 0 58.4703C0 58.4703 0.0426557 58.4703 0.133299 58.4117L0.543859 58.2624L2.14345 57.7292C2.83127 57.4946 3.67905 57.196 4.6708 56.94C5.66254 56.6841 6.80358 56.3055 8.04593 55.991L10.0188 55.4578C10.7066 55.2871 11.4264 55.1325 12.1515 54.9566C13.6338 54.5993 15.2387 54.2901 16.9236 53.9488C20.2988 53.3143 24.0311 52.7118 27.9608 52.2106C35.8308 51.2295 42.9916 50.7443 48.1743 50.4244L54.3114 50.0885L55.9856 50.0138H56.4175L56.5828 50.0511Z" fill="#E0E0E0"/>
<path d="M57.5689 51.0322C57.5689 51.0322 57.5316 51.0322 57.4569 50.9469L57.1423 50.675L55.9586 49.6086C55.4521 49.1394 54.8229 48.5742 54.0818 47.929C53.3406 47.2839 52.5142 46.532 51.5704 45.7323C49.6989 44.1327 47.4275 42.2452 44.8682 40.219C42.3088 38.1929 39.4402 36.0654 36.337 33.8846C33.2338 31.7039 30.2373 29.763 27.4646 28.0195C24.692 26.2759 22.1327 24.8203 19.9999 23.5993C18.9335 22.9808 17.9418 22.4582 17.0833 21.9997C16.2249 21.5411 15.4464 21.1359 14.8546 20.8L13.4522 20.0695L13.0897 19.8669C13.0097 19.8243 12.967 19.7976 12.9724 19.7923C13.0197 19.8019 13.0648 19.8199 13.1057 19.8456L13.4789 20.0215L14.9132 20.704C15.5317 21.008 16.2888 21.3919 17.1526 21.8557C18.0164 22.3196 19.0188 22.8262 20.0959 23.4553C22.266 24.639 24.8147 26.1213 27.6033 27.8329C30.3919 29.5444 33.4044 31.5172 36.5023 33.698C39.6002 35.8788 42.4634 38.0329 45.0334 40.059C47.6035 42.0852 49.8322 43.9887 51.7091 45.631C52.6475 46.4361 53.4686 47.1932 54.1991 47.8544C54.9296 48.5155 55.5427 49.0914 56.0439 49.5713L57.1957 50.675L57.4889 50.9629C57.5176 50.9836 57.5443 51.0068 57.5689 51.0322Z" fill="#E0E0E0"/>
<path d="M57.8357 50.1258C57.8142 50.0872 57.7981 50.046 57.7877 50.0031L57.6704 49.6352C57.5744 49.31 57.4198 48.8354 57.2598 48.2116C56.9239 46.9746 56.5133 45.1564 56.1241 42.8796C55.7349 40.6029 55.4043 37.8942 55.143 34.8817C54.8818 31.8691 54.6738 28.5206 54.4285 25.0282C54.1833 21.5358 53.8633 18.214 53.4155 15.2121C53.0485 12.5542 52.5142 9.92207 51.8159 7.33144C51.3368 5.58578 50.7564 3.86953 50.0777 2.19142C49.8484 1.59424 49.6298 1.12503 49.5018 0.831774L49.3578 0.474533C49.338 0.435829 49.3237 0.394556 49.3152 0.351898C49.3152 0.351898 49.3152 0.383889 49.3845 0.463869L49.5551 0.805115C49.6938 1.11437 49.9337 1.55692 50.1736 2.14877C50.8838 3.81628 51.4858 5.52783 51.9758 7.27278C52.7151 9.8646 53.2815 12.5026 53.6714 15.1694C54.1299 18.1766 54.4499 21.5038 54.7058 25.0016C54.9617 28.4993 55.143 31.8318 55.399 34.855C55.6549 37.8782 55.9322 40.5922 56.3214 42.853C56.7106 45.1137 57.0625 46.9372 57.3878 48.1849C57.5264 48.8141 57.6704 49.2886 57.745 49.6192C57.7823 49.7738 57.809 49.8965 57.8357 49.9925C57.8405 50.0368 57.8405 50.0815 57.8357 50.1258Z" fill="#E0E0E0"/>
<path d="M59.9738 51.3041C59.8149 51.8259 59.5047 52.2887 59.0826 52.6341C58.6604 52.9794 58.1453 53.1918 57.6025 53.2444C57.0596 53.2969 56.5133 53.1872 56.0328 52.9292C55.5523 52.6712 55.1591 52.2764 54.9031 51.7948C54.647 51.3133 54.5395 50.7666 54.5942 50.2239C54.649 49.6813 54.8634 49.1671 55.2105 48.7463C55.5576 48.3256 56.0217 48.0173 56.544 47.8604C57.0664 47.7035 57.6235 47.7051 58.145 47.865C58.8432 48.0791 59.4279 48.5615 59.7708 49.2063C60.1137 49.851 60.1867 50.6056 59.9738 51.3041Z" fill="#E0E0E0"/>
<path d="M19.3552 81.9469C19.2301 81.759 19.1281 81.5567 19.0513 81.3444L18.2888 79.6915C17.6383 78.2945 16.6893 76.391 15.5162 74.3595C14.3432 72.3281 13.1542 70.5632 12.2477 69.3048L11.1813 67.8226C11.0396 67.6481 10.9146 67.4606 10.8081 67.2627C10.9804 67.4069 11.1344 67.5716 11.2667 67.7532C11.5439 68.0838 11.9331 68.5744 12.397 69.1875C13.6023 70.7997 14.7132 72.4803 15.7242 74.2209C16.7313 75.9625 17.6374 77.7606 18.4381 79.6062C18.7421 80.3153 18.9713 80.8965 19.1206 81.3018C19.2192 81.5089 19.2977 81.7249 19.3552 81.9469Z" fill="#E0E0E0"/>
<path d="M56.8122 100.673C56.5201 100.686 56.2275 100.674 55.9377 100.635C55.4045 100.593 54.5621 100.508 53.565 100.385C48.3464 99.7036 43.2217 98.4336 38.2889 96.5992C37.3452 96.2419 36.588 95.938 36.0708 95.7141C35.795 95.6125 35.529 95.4858 35.2764 95.3355C35.5599 95.4081 35.8378 95.5007 36.1082 95.6128C36.6413 95.8047 37.4038 96.082 38.3529 96.4126C40.2564 97.0737 42.9064 97.9162 45.887 98.6573C48.8675 99.3985 51.6028 99.8837 53.5917 100.188C54.5834 100.342 55.3939 100.454 55.9484 100.529C56.2396 100.554 56.5284 100.602 56.8122 100.673Z" fill="#E0E0E0"/>
<path d="M91.427 85.45C91.2594 85.6467 91.0717 85.8254 90.8672 85.9832C90.4939 86.3298 89.9341 86.8097 89.2356 87.3855C85.5712 90.3955 81.564 92.9619 77.2973 95.0316C76.4762 95.4261 75.8097 95.7247 75.3405 95.9167C75.1038 96.0347 74.8554 96.1276 74.5994 96.1939C74.8186 96.0487 75.0506 95.9237 75.2925 95.8207C75.7511 95.5968 76.4069 95.2875 77.212 94.8556C78.8116 94.0292 81.019 92.8242 83.3491 91.3365C85.6792 89.8489 87.6947 88.3666 89.1236 87.2576C89.8381 86.7244 90.414 86.2445 90.8032 85.9246C90.9986 85.7506 91.2072 85.5919 91.427 85.45Z" fill="#E0E0E0"/>
<path d="M101.179 53.2023C101.215 53.4978 101.229 53.7953 101.222 54.0928C101.222 54.6686 101.222 55.5004 101.185 56.5241C101.068 59.1953 100.767 61.8552 100.284 64.4848C99.7929 67.1152 99.1231 69.709 98.2788 72.2481C97.9483 73.2185 97.6657 73.997 97.447 74.5302C97.3507 74.8124 97.2294 75.0854 97.0845 75.346C97.1473 75.0547 97.2347 74.7693 97.3457 74.4929C97.5324 73.9597 97.7883 73.1652 98.0922 72.1841C99.6764 67.0941 100.648 61.8335 100.987 56.5135C101.051 55.4897 101.094 54.6633 101.115 54.0928C101.11 53.7946 101.132 53.4967 101.179 53.2023Z" fill="#E0E0E0"/>
<path d="M96.7325 37.3291C96.6248 37.0798 96.5409 36.821 96.4819 36.5559C96.3433 36.0547 96.1247 35.3349 95.8314 34.4232C94.3162 29.8118 92.04 25.4865 89.0972 21.6264C88.532 20.8853 88.0628 20.2988 87.7269 19.8989C87.5414 19.7015 87.377 19.4852 87.2363 19.2537C87.4408 19.4309 87.6316 19.6234 87.8069 19.8296C88.1694 20.2081 88.6653 20.7787 89.2518 21.5038C92.3015 25.3214 94.5977 29.684 96.0181 34.3592C96.2847 35.2549 96.4766 35.9588 96.5833 36.492C96.6559 36.7664 96.7058 37.0464 96.7325 37.3291Z" fill="#E0E0E0"/>
<path d="M75.7993 12.5621C75.5448 12.5613 75.2911 12.5345 75.0421 12.4821C74.5622 12.4128 73.8691 12.2902 73.016 12.1249C71.3044 11.7889 68.9637 11.2451 66.4203 10.4773C63.877 9.70949 61.6216 8.8777 60.022 8.18988C59.2222 7.8593 58.577 7.57137 58.1398 7.36342C57.9047 7.26728 57.6781 7.15134 57.4626 7.01685C57.7094 7.07112 57.9491 7.15341 58.1771 7.26212L60.0966 8.00859C61.6962 8.63243 63.973 9.44289 66.495 10.2107C69.017 10.9785 71.3631 11.5383 73.032 11.9329L75.0421 12.3755C75.3002 12.4117 75.5539 12.4742 75.7993 12.5621Z" fill="#E0E0E0"/>
<path d="M40.5921 11.7144C40.3694 11.8555 40.1337 11.9751 39.8883 12.0716L37.9528 12.9674C36.3159 13.7298 34.0818 14.8282 31.6771 16.1665C29.2724 17.5049 27.1503 18.8325 25.636 19.7869C24.9108 20.2562 24.3136 20.6507 23.8444 20.9493C23.6332 21.1059 23.4083 21.2433 23.1726 21.3599C23.3612 21.176 23.5665 21.01 23.7858 20.864C24.1857 20.5601 24.7829 20.1335 25.5293 19.6217C27.017 18.6032 29.1284 17.2596 31.5385 15.9213C33.9485 14.583 36.2412 13.5059 37.8728 12.7861C38.6993 12.4288 39.3764 12.1462 39.8457 11.9703C40.0864 11.863 40.3362 11.7773 40.5921 11.7144Z" fill="#E0E0E0"/>
<path d="M12.4235 41.9785C12.3784 41.4049 12.3873 40.8283 12.4502 40.2563C12.5088 39.1899 12.6315 37.729 12.8447 36.124C13.058 34.5191 13.3139 33.0635 13.5272 32.0238C13.618 31.4556 13.7608 30.8969 13.9538 30.3549C13.9166 30.9282 13.84 31.4983 13.7245 32.0611C13.5539 33.1275 13.3299 34.5564 13.122 36.156C12.914 37.7556 12.7541 39.2166 12.6421 40.2723C12.6138 40.8459 12.5407 41.4164 12.4235 41.9785Z" fill="#E0E0E0"/>
<path d="M206.624 126.677C206.624 126.677 226.704 144.006 228.885 148.778C231.066 153.55 239.49 167.408 241.058 174.398C242.258 179.73 241.97 180.706 241.97 180.706L147.29 123.216L125.285 118.012C125.285 118.012 154.035 113.214 161.1 114.221C168.165 115.229 167.056 114.813 167.056 114.813C167.056 114.813 179.82 113.469 184.267 115.672C188.714 117.874 196.04 122.976 197.619 123.51C199.197 124.043 204.395 124.725 206.624 126.677Z" fill="#F5F5F5"/>
<path d="M125.285 118.012C125.285 118.012 145.125 117.852 150.191 120.033C150.191 120.033 183.686 123.019 204.753 147.759C207.685 147.162 238.488 167.381 241.954 180.876C241.954 180.876 239.57 179.549 238.493 185.051C237.837 188.462 237.423 191.915 237.256 195.384C237.256 195.384 218.488 184.886 205.265 187.493C205.265 187.493 184.635 168.751 164.24 166.037C164.24 166.037 154.259 145.84 133.459 140.247C133.47 140.247 136.434 125.312 125.285 118.012Z" fill="#EBEBEB"/>
<path d="M204.731 147.237C204.756 147.372 204.769 147.51 204.769 147.647C204.769 147.941 204.769 148.325 204.811 148.815C204.849 149.881 204.891 151.316 204.95 153.107C205.062 156.76 205.216 161.756 205.387 167.274C205.558 172.793 205.606 177.826 205.59 181.457C205.59 183.27 205.59 184.736 205.542 185.755C205.542 186.24 205.515 186.629 205.504 186.923C205.504 187.058 205.495 187.193 205.478 187.328C205.454 187.194 205.445 187.058 205.451 186.923C205.451 186.631 205.451 186.242 205.451 185.755C205.451 184.689 205.424 183.249 205.408 181.457C205.371 177.832 205.275 172.82 205.126 167.285C204.977 161.75 204.827 156.738 204.769 153.113C204.737 151.3 204.721 149.828 204.721 148.815C204.721 148.33 204.721 147.941 204.721 147.647C204.712 147.51 204.715 147.373 204.731 147.237Z" fill="#E0E0E0"/>
<path d="M228.554 166.522C228.605 166.611 228.645 166.706 228.672 166.805C228.741 167.029 228.837 167.301 228.949 167.642C229.189 168.41 229.514 169.455 229.919 170.729C230.719 173.395 231.812 176.978 233.017 180.956C234.222 184.934 235.251 188.559 236.035 191.225C236.403 192.51 236.702 193.566 236.92 194.339C237.016 194.686 237.091 194.963 237.15 195.187C237.183 195.285 237.202 195.388 237.208 195.491C237.162 195.399 237.124 195.302 237.096 195.203C237.022 194.984 236.931 194.707 236.819 194.366L235.849 191.279C235.043 188.613 233.956 185.03 232.751 181.052C231.546 177.074 230.511 173.465 229.727 170.809C229.365 169.524 229.061 168.469 228.842 167.695L228.618 166.842C228.581 166.74 228.559 166.632 228.554 166.522Z" fill="#E0E0E0"/>
<path d="M205.371 147.727C205.403 147.447 205.462 147.17 205.547 146.901C205.681 146.368 205.857 145.616 206.08 144.672C206.6 142.213 206.93 139.717 207.067 137.207C207.195 134.697 207.133 132.18 206.88 129.679C206.779 128.719 206.683 127.946 206.603 127.407C206.548 127.132 206.519 126.851 206.518 126.57C206.603 126.839 206.667 127.113 206.71 127.391C206.822 127.924 206.95 128.698 207.072 129.657C207.704 134.684 207.433 139.783 206.272 144.715C206.048 145.659 205.841 146.416 205.67 146.933C205.593 147.206 205.493 147.471 205.371 147.727Z" fill="#E0E0E0"/>
<path d="M149.812 119.884C150.017 119.765 150.233 119.665 150.457 119.585C150.878 119.409 151.497 119.18 152.265 118.913C153.806 118.38 155.97 117.751 158.37 117.117C160.769 116.482 162.95 115.933 164.518 115.517L166.373 114.984C166.596 114.904 166.826 114.849 167.061 114.818C166.851 114.928 166.632 115.017 166.405 115.085C165.979 115.245 165.339 115.453 164.571 115.693C163.019 116.178 160.839 116.759 158.444 117.394C156.05 118.028 153.88 118.62 152.329 119.105C151.55 119.345 150.926 119.548 150.495 119.692C150.275 119.782 150.046 119.846 149.812 119.884Z" fill="#E0E0E0"/>
<path d="M133.47 140.247C133.57 140.163 133.677 140.088 133.79 140.023L134.744 139.42C135.565 138.887 136.781 138.172 138.3 137.287C142.266 135.041 146.377 133.062 150.607 131.364C153.086 130.377 155.491 129.545 157.698 128.852C159.906 128.159 161.916 127.626 163.617 127.221C165.318 126.815 166.704 126.522 167.664 126.351L168.773 126.154C168.9 126.125 169.031 126.107 169.162 126.101C169.04 126.15 168.913 126.186 168.783 126.208L167.685 126.458C166.73 126.661 165.355 126.991 163.665 127.413C161.974 127.834 159.975 128.399 157.773 129.097C155.571 129.796 153.182 130.638 150.708 131.619C146.492 133.319 142.38 135.269 138.396 137.458C136.866 138.3 135.64 138.994 134.797 139.489L133.816 140.071C133.707 140.141 133.591 140.2 133.47 140.247Z" fill="#E0E0E0"/>
<path d="M164.251 166.037C164.303 165.911 164.367 165.789 164.443 165.675L165.045 164.662C165.579 163.793 166.325 162.529 167.237 160.929C169.066 157.767 171.449 153.315 174.28 148.506C175.704 146.106 177.144 143.862 178.546 141.878C179.255 140.897 179.916 139.953 180.593 139.116C180.929 138.695 181.239 138.279 181.564 137.895L182.492 136.802C183.078 136.093 183.659 135.506 184.155 134.979C184.406 134.712 184.635 134.445 184.859 134.243L185.472 133.656L186.336 132.851C186.431 132.752 186.537 132.662 186.651 132.585C186.567 132.695 186.474 132.799 186.373 132.894C186.165 133.102 185.893 133.384 185.552 133.736L184.95 134.333C184.736 134.557 184.518 134.813 184.273 135.08C183.787 135.613 183.206 136.216 182.641 136.93L181.729 138.029C181.415 138.418 181.105 138.834 180.775 139.26C180.108 140.097 179.458 141.041 178.754 142.022C177.389 144.011 175.96 146.25 174.536 148.644C171.716 153.443 169.3 157.89 167.429 161.031C166.49 162.604 165.723 163.867 165.157 164.72L164.512 165.707C164.435 165.825 164.348 165.935 164.251 166.037Z" fill="#E0E0E0"/>
<path d="M189.493 146.581L160.881 201.159L158.834 199.751L187.845 145.232L189.493 146.581Z" fill="#F5F5F5"/>
<path d="M147.509 218.77C148.828 218.73 150.114 218.351 151.244 217.669C152.374 216.988 153.31 216.026 153.96 214.878L164.534 196.147L161.249 194.291L150.671 213.023C150.385 213.525 149.992 213.958 149.52 214.29C149.047 214.622 148.507 214.845 147.938 214.943C147.368 215.041 146.784 215.011 146.228 214.856C145.672 214.701 145.157 214.425 144.72 214.046C144.286 213.676 143.943 213.21 143.718 212.687C143.462 212.113 143.349 211.485 143.39 210.858C143.431 210.231 143.624 209.623 143.952 209.088L145.467 206.592C145.596 206.38 145.682 206.145 145.721 205.9C145.759 205.655 145.749 205.405 145.69 205.163C145.632 204.922 145.527 204.695 145.38 204.495C145.234 204.294 145.049 204.125 144.837 203.996C144.409 203.736 143.895 203.657 143.408 203.776C142.921 203.895 142.501 204.202 142.241 204.63L140.748 207.125C140.028 208.304 139.64 209.656 139.625 211.037C139.61 212.418 139.97 213.778 140.665 214.971C141.36 216.165 142.365 217.148 143.574 217.817C144.782 218.486 146.149 218.815 147.53 218.77H147.509Z" fill="#E0E0E0"/>
<path d="M201.324 144.048L192.34 143.211L192.345 143.185L201.324 144.027V144.048Z" fill="#E0E0E0"/>
<path d="M186.629 132.574C186.747 132.981 186.828 133.399 186.869 133.822C186.997 134.589 187.173 135.65 187.402 136.818C187.631 137.986 187.877 139.036 188.053 139.799C188.178 140.203 188.26 140.62 188.298 141.041C188.107 140.661 187.962 140.26 187.866 139.847C187.637 139.095 187.365 138.05 187.13 136.871C186.896 135.693 186.752 134.627 186.677 133.843C186.609 133.424 186.593 132.997 186.629 132.574Z" fill="#E0E0E0"/>
<path d="M199.719 142.598C199.398 142.757 199.055 142.866 198.701 142.923C197.862 143.122 197.011 143.261 196.152 143.339C195.296 143.418 194.436 143.439 193.577 143.403C193.217 143.409 192.858 143.364 192.51 143.27C192.51 143.185 194.137 143.27 196.12 143.062C198.104 142.854 199.698 142.518 199.719 142.598Z" fill="#E0E0E0"/>
<path d="M195.576 139.1C195.048 139.851 194.408 140.517 193.678 141.073C193 141.691 192.232 142.204 191.401 142.593C191.359 142.523 192.35 141.82 193.497 140.86C194.643 139.9 195.517 139.047 195.576 139.1Z" fill="#E0E0E0"/>
<path d="M191.3 135.581C191.115 136.601 190.844 137.604 190.49 138.578C190.222 139.578 189.865 140.552 189.423 141.489C189.602 140.468 189.873 139.465 190.234 138.492C190.502 137.492 190.859 136.518 191.3 135.581Z" fill="#E0E0E0"/>
<path d="M192.596 143.339L186.597 152.355L184.555 151.081L188.373 140.934L192.596 143.339Z" fill="#E0E0E0"/>
<path d="M15.7078 111.289C16.9566 111.717 18.0743 112.459 18.9531 113.444C19.8318 114.43 20.4421 115.624 20.7251 116.914L25.3053 137.943L21.6156 138.748L17.0461 117.719C16.9232 117.153 16.6758 116.621 16.3217 116.162C15.9677 115.703 15.5159 115.329 14.9993 115.067C14.4826 114.804 13.9139 114.66 13.3346 114.645C12.7553 114.63 12.1799 114.744 11.6501 114.978C11.1263 115.204 10.6611 115.547 10.2905 115.981C9.87585 116.453 9.58285 117.02 9.43697 117.631C9.29108 118.243 9.29671 118.881 9.45336 119.489L10.1625 122.326C10.2232 122.566 10.236 122.817 10.2 123.062C10.1639 123.307 10.0799 123.543 9.95262 123.756C9.82535 123.969 9.65736 124.155 9.45825 124.303C9.25913 124.451 9.0328 124.558 8.7922 124.619C8.30577 124.74 7.79121 124.663 7.36139 124.405C6.93157 124.147 6.62159 123.729 6.49946 123.243L5.79031 120.412C5.52925 119.373 5.4885 118.291 5.67066 117.236C5.85283 116.181 6.25388 115.175 6.84802 114.284C7.44215 113.393 8.21622 112.637 9.1204 112.063C10.0246 111.489 11.0389 111.111 12.098 110.953C13.3107 110.772 14.5492 110.887 15.7078 111.289Z" fill="#E0E0E0"/>
<path d="M13.0579 134.349L25.3854 158.242C25.3854 158.242 26.841 174.622 27.8061 180.908C28.7712 187.195 41.5305 225.27 41.5305 225.27L45.4335 224.438C45.4335 224.438 41.9784 182.15 39.659 175.598C37.3396 169.045 31.9757 157.767 31.9757 157.767L31.2558 154.398L30.1895 130.521L26.6117 134.253L21.477 130.159L19.2643 135.453L13.0579 134.349Z" fill="#F5F5F5"/>
<path d="M31.7882 155.168L24.7119 156.677C24.1503 156.797 23.7922 157.35 23.9119 157.911L24.1566 159.058C24.2764 159.62 24.8288 159.978 25.3904 159.858L32.4667 158.349C33.0283 158.229 33.3864 157.677 33.2667 157.115L33.022 155.968C32.9022 155.407 32.3498 155.048 31.7882 155.168Z" fill="#E0E0E0"/>
<path d="M41.4016 225.28L45.5732 224.39L45.6088 224.556C45.7225 225.089 45.62 225.645 45.3238 226.102C45.0277 226.558 44.5622 226.879 44.0298 226.993L43.8838 227.024C43.3513 227.137 42.7956 227.035 42.3387 226.739C41.8818 226.443 41.5613 225.977 41.4477 225.445L41.412 225.278L41.4016 225.28Z" fill="#E0E0E0"/>
<path d="M42.9536 225.652L44.4192 225.34L45.4947 230.405C45.5344 230.591 45.4982 230.786 45.3942 230.946C45.2902 231.106 45.1269 231.219 44.9401 231.258L44.8567 231.276C44.6699 231.316 44.4751 231.28 44.315 231.176C44.1549 231.072 44.0427 230.908 44.003 230.722L42.9275 225.657L42.9536 225.652Z" fill="#E0E0E0"/>
<path d="M42.3571 192.633C42.3716 192.734 42.3716 192.836 42.3571 192.937C42.3571 193.14 42.3571 193.433 42.3571 193.817C42.3571 194.574 42.3144 195.678 42.1758 197.016C42.0372 198.354 41.7866 199.97 41.456 201.735C41.1254 203.5 40.7309 205.43 40.3896 207.472C39.6911 211.546 39.5045 215.305 39.8138 217.992C39.9188 219.055 40.097 220.11 40.347 221.148C40.5282 221.884 40.6455 222.284 40.6242 222.295C40.5743 222.204 40.535 222.107 40.5069 222.007C40.4483 221.82 40.3363 221.543 40.2403 221.175C39.9495 220.141 39.7392 219.085 39.6111 218.019C39.2486 215.31 39.4085 211.514 40.1123 207.424C40.4429 205.382 40.8535 203.446 41.1787 201.687C41.504 199.927 41.7972 198.338 41.9572 196.995C42.1172 195.651 42.1918 194.558 42.2238 193.795C42.2238 193.444 42.2505 193.156 42.2611 192.926C42.2823 192.825 42.3145 192.727 42.3571 192.633Z" fill="#E0E0E0"/>
<path d="M41.2215 183.686C41.2357 183.78 41.2357 183.875 41.2215 183.969C41.2215 184.182 41.1682 184.449 41.1309 184.774C41.0349 185.51 40.9123 186.512 40.7576 187.728C40.4324 190.26 40.0005 193.689 39.5206 197.48C39.0407 201.271 38.4542 204.721 37.969 207.195C37.7237 208.426 37.5158 209.423 37.3505 210.111C37.2759 210.426 37.2119 210.687 37.1586 210.9C37.1458 210.994 37.1169 211.084 37.0732 211.167C37.0768 211.072 37.0875 210.978 37.1052 210.884C37.1426 210.671 37.1905 210.41 37.2439 210.09L37.7771 207.157C38.2143 204.683 38.7421 201.25 39.2487 197.443C39.7552 193.636 40.1924 190.191 40.5603 187.701C40.747 186.459 40.9016 185.451 41.0242 184.758C41.0811 184.438 41.1291 184.171 41.1682 183.958C41.1729 183.865 41.1909 183.774 41.2215 183.686Z" fill="#E0E0E0"/>
<path d="M39.2059 174.094C39.2175 174.202 39.2175 174.311 39.2059 174.419C39.2059 174.659 39.2059 174.952 39.2059 175.352C39.2059 176.157 39.1365 177.33 39.0566 178.775C38.8913 181.665 38.566 185.654 37.9902 190.031C37.4143 194.409 36.7318 198.354 36.156 201.191C35.8681 202.609 35.6228 203.756 35.4362 204.545L35.2176 205.446C35.1981 205.554 35.1658 205.66 35.1216 205.76C35.1221 205.651 35.1346 205.542 35.1589 205.435C35.2069 205.195 35.2602 204.902 35.3295 204.518C35.4842 203.692 35.7028 202.551 35.964 201.154C36.4972 198.312 37.1477 194.371 37.7129 189.999C38.2781 185.627 38.6407 181.628 38.854 178.759C38.9553 177.346 39.0352 176.189 39.0939 175.347L39.1632 174.414C39.1631 174.306 39.1774 174.198 39.2059 174.094Z" fill="#E0E0E0"/>
<path d="M33.0423 158.13C33.0423 158.13 33.0103 158.167 32.9356 158.231C32.813 158.314 32.678 158.377 32.5358 158.418C32.3057 158.472 32.0724 158.511 31.8373 158.535C31.5279 158.557 31.2315 158.668 30.9841 158.855V158.786C31.3041 160.151 31.7573 162.166 32.0985 164.651C32.4963 167.449 32.6958 170.271 32.6957 173.097C32.7105 177.041 32.2903 180.975 31.4427 184.827C31.3574 185.195 31.2774 185.547 31.2028 185.894C31.1281 186.24 31.0268 186.533 30.9522 186.821C30.7975 187.402 30.6536 187.888 30.5203 188.304L30.211 189.226C30.1843 189.336 30.143 189.442 30.0884 189.541C30.0987 189.428 30.122 189.317 30.1577 189.21C30.227 188.965 30.3123 188.677 30.4136 188.272C30.5149 187.866 30.6589 187.365 30.7975 186.784C30.8722 186.491 30.9468 186.181 31.0321 185.856C31.1174 185.531 31.1708 185.168 31.2507 184.79C32.0377 180.942 32.429 177.024 32.4184 173.097C32.4262 170.273 32.2481 167.452 31.8853 164.651C31.5653 162.193 31.1494 160.183 30.8722 158.786V158.743L30.9042 158.717C31.1762 158.519 31.5012 158.407 31.8373 158.397C32.1145 158.37 32.3705 158.354 32.5304 158.317C32.7085 158.277 32.8806 158.215 33.0423 158.13Z" fill="#E0E0E0"/>
<path d="M19.6747 135.944C19.744 135.917 21.4395 140.289 23.4603 145.707C25.4812 151.124 27.0648 155.539 26.9901 155.565C26.9155 155.592 25.2252 151.22 23.2044 145.803C21.1836 140.385 19.6 135.97 19.6747 135.944Z" fill="#E0E0E0"/>
<path d="M28.11 134.003C28.1847 134.003 28.4566 138.7 28.7125 144.496C28.9685 150.292 29.1178 155.005 29.0378 155.005C28.9578 155.005 28.6912 150.313 28.4353 144.512C28.1793 138.711 28.0354 134.008 28.11 134.003Z" fill="#E0E0E0"/>
<path d="M222.519 12.0716C222.983 13.0368 223.211 14.0986 223.185 15.1694C223.158 16.2402 222.877 17.2892 222.364 18.23L214.009 33.2768L211.567 31.6772L219.928 16.6144C220.154 16.2128 220.294 15.7681 220.339 15.3091C220.383 14.85 220.331 14.3868 220.185 13.9492C220.039 13.5116 219.804 13.1095 219.493 12.7686C219.182 12.4278 218.804 12.1558 218.381 11.9702C217.98 11.8121 217.546 11.7553 217.118 11.805C216.635 11.8617 216.175 12.0377 215.777 12.3169C215.38 12.5962 215.058 12.97 214.841 13.4045L213.775 15.4893C213.694 15.6624 213.578 15.8167 213.434 15.9421C213.29 16.0676 213.122 16.1615 212.939 16.2178C212.757 16.2741 212.565 16.2915 212.375 16.2688C212.186 16.2462 212.003 16.1841 211.839 16.0865C211.503 15.8672 211.261 15.5294 211.162 15.1402C211.064 14.751 211.115 14.3389 211.306 13.9857L212.372 11.9009C212.743 11.1572 213.267 10.5007 213.911 9.97487C214.554 9.44908 215.302 9.06601 216.105 8.85105C216.895 8.65547 217.72 8.64018 218.517 8.80631C219.315 8.97244 220.065 9.31574 220.711 9.8108C221.485 10.4099 222.105 11.185 222.519 12.0716Z" fill="#E0E0E0"/>
<path d="M209.146 24.2764L203.558 45.391C203.558 45.391 195.885 55.9429 193.171 60.2245C190.457 64.5061 177.767 94.2958 177.767 94.2958L180.337 95.986C180.337 95.986 200.306 68.9049 202.417 63.7063C204.528 58.5076 207.413 48.7768 207.413 48.7768L208.757 46.3667L220.487 31.5599L216.595 31.7732L215.928 26.4679L211.977 28.3767L209.146 24.2764Z" fill="#F5F5F5"/>
<path d="M207.211 49.3047L202.886 46.4627C202.66 46.3038 202.5 46.0662 202.439 45.7961C202.378 45.526 202.42 45.2429 202.556 45.0018L202.806 44.5486C202.867 44.4321 202.951 44.3295 203.054 44.2474C203.157 44.1653 203.275 44.1056 203.402 44.0719C203.529 44.0383 203.662 44.0316 203.791 44.0521C203.921 44.0727 204.045 44.1201 204.155 44.1913L208.485 47.0333C208.711 47.1939 208.87 47.4325 208.931 47.7031C208.992 47.9737 208.951 48.2574 208.816 48.4996L208.56 48.9474C208.5 49.0652 208.417 49.169 208.314 49.252C208.212 49.335 208.093 49.3954 207.965 49.4292C207.838 49.4629 207.705 49.4693 207.575 49.4478C207.445 49.4264 207.321 49.3776 207.211 49.3047Z" fill="#E0E0E0"/>
<path d="M178.183 96.6951C177.815 96.4332 177.557 96.0442 177.458 95.6031C177.36 95.162 177.428 94.7001 177.65 94.3064L177.687 94.2424L180.428 96.0446L180.391 96.1086C180.293 96.3004 180.155 96.4695 179.988 96.6047C179.82 96.74 179.626 96.8385 179.418 96.8938C179.21 96.9491 178.992 96.96 178.779 96.9258C178.567 96.8916 178.364 96.813 178.183 96.6951Z" fill="#E0E0E0"/>
<path d="M176.515 99.7557C176.386 99.6623 176.296 99.5251 176.261 99.3699C176.227 99.2147 176.251 99.0522 176.328 98.9133L178.343 95.3195L179.309 95.9487L177.293 99.5478C177.26 99.6165 177.212 99.6772 177.153 99.7258C177.094 99.7744 177.025 99.8097 176.951 99.8294C176.877 99.8492 176.8 99.8528 176.725 99.8401C176.65 99.8273 176.578 99.7986 176.515 99.7557Z" fill="#E0E0E0"/>
<path d="M195.091 75.3513C195.053 75.4225 195.007 75.4888 194.952 75.5485C194.856 75.6712 194.713 75.8578 194.515 76.0817C193.963 76.7185 193.378 77.3254 192.761 77.8999C191.22 79.3822 188.831 81.0991 186.331 83.1679C184.159 84.8821 182.228 86.8799 180.588 89.1077C180.103 89.7894 179.663 90.5018 179.271 91.2405C179.143 91.5208 178.995 91.7916 178.829 92.051C178.844 91.9734 178.869 91.8982 178.903 91.827C178.962 91.6777 179.042 91.4591 179.175 91.1925C179.535 90.4297 179.952 89.6953 180.423 88.9958C182.03 86.7161 183.959 84.6813 186.149 82.9546C188.666 80.8912 191.065 79.1903 192.628 77.756C193.417 77.0468 194.025 76.439 194.435 76.0071C194.64 75.7749 194.859 75.5559 195.091 75.3513Z" fill="#E0E0E0"/>
<path d="M199.095 69.3901C198.909 69.6065 198.703 69.8063 198.482 69.9873L196.76 71.5389L191.055 76.6416C188.815 78.6198 186.725 80.374 185.19 81.547C184.411 82.1442 183.777 82.6134 183.329 82.9333C183.104 83.1084 182.867 83.267 182.62 83.4079C182.818 83.211 183.034 83.0325 183.265 82.8747L185.067 81.419C186.587 80.1874 188.65 78.4385 190.89 76.4603C193.129 74.4822 195.155 72.6853 196.643 71.4163C197.389 70.7818 198.002 70.2752 198.429 69.9287C198.636 69.7316 198.859 69.5515 199.095 69.3901Z" fill="#E0E0E0"/>
<path d="M202.945 62.5599C202.901 62.633 202.849 62.701 202.79 62.7625L202.31 63.2957C201.889 63.7649 201.244 64.4314 200.476 65.2419C198.903 66.8415 196.674 69.0489 194.078 71.3363C191.481 73.6237 189.076 75.6019 187.28 76.9615C186.384 77.644 185.648 78.1879 185.147 78.5611L184.55 78.9717C184.482 79.0277 184.407 79.0727 184.326 79.105C184.326 79.105 184.384 79.0357 184.512 78.929L185.077 78.4705C185.611 78.0546 186.315 77.4947 187.173 76.8123C188.932 75.4046 191.337 73.4211 193.907 71.1337C196.477 68.8463 198.706 66.6922 200.306 65.1086L202.198 63.2264L202.732 62.7199C202.87 62.6079 202.94 62.5493 202.945 62.5599Z" fill="#E0E0E0"/>
<path d="M207.819 49.6139C207.78 49.6208 207.74 49.6208 207.701 49.6139C207.589 49.5968 207.48 49.5588 207.381 49.5019C207.226 49.4079 207.078 49.3028 206.939 49.1873C206.763 49.03 206.544 48.9296 206.31 48.8994L206.374 48.8674C204.618 52.2401 202.47 55.3936 199.975 58.2623C197.956 60.6127 195.679 62.7285 193.188 64.57C192.708 64.922 192.271 65.2312 191.871 65.4818C191.471 65.7324 191.14 65.967 190.852 66.1323L190.186 66.5109C190.036 66.5962 189.951 66.6388 189.946 66.6282C190.012 66.5669 190.083 66.5115 190.159 66.4629L190.794 66.0417C191.071 65.8604 191.401 65.6258 191.785 65.3538C192.169 65.0819 192.601 64.7727 193.07 64.4101C195.513 62.5348 197.757 60.4141 199.767 58.081C202.237 55.2157 204.409 52.1072 206.251 48.8034V48.7608H206.331C206.591 48.7972 206.832 48.917 207.019 49.102C207.184 49.2406 207.317 49.358 207.435 49.4379C207.553 49.5147 207.683 49.574 207.819 49.6139Z" fill="#E0E0E0"/>
<path d="M211.95 28.9312C212.02 28.9312 210.708 32.509 209.018 36.8652C207.328 41.2214 205.893 44.7245 205.819 44.6978C205.744 44.6712 207.061 41.1201 208.751 36.7639C210.442 32.4077 211.876 28.8992 211.95 28.9312Z" fill="#E0E0E0"/>
<path d="M217.581 32.5036C217.645 32.5516 215.374 35.5002 212.516 39.094C209.658 42.6877 207.296 45.5616 207.232 45.4923C207.168 45.423 209.439 42.4957 212.297 38.902C215.155 35.3083 217.528 32.4557 217.581 32.5036Z" fill="#E0E0E0"/>
<path d="M227.355 244.545C227.355 244.62 177.592 244.684 116.226 244.684C54.8605 244.684 5.08667 244.625 5.08667 244.545C5.08667 244.465 54.8392 244.406 116.226 244.406C177.613 244.406 227.355 244.476 227.355 244.545Z" fill="#263238"/>
<path d="M135.309 90.0781L140.679 86.3458C141.318 82.0183 143.553 78.0865 146.944 75.3234C150.335 72.5603 154.638 71.1657 159.005 71.4138C163.372 71.6619 167.489 73.5348 170.546 76.6642C173.602 79.7936 175.377 83.9532 175.522 88.3252C175.668 92.6972 174.172 96.9654 171.33 100.291C168.487 103.616 164.504 105.757 160.163 106.295C155.821 106.832 151.436 105.726 147.869 103.193C144.302 100.661 141.811 96.8863 140.887 92.6108L135.309 90.0781Z" fill="white"/>
<path d="M135.309 90.0781L140.871 92.6854C140.878 92.6907 140.888 92.6935 140.897 92.6935C140.907 92.6935 140.916 92.6907 140.924 92.6854H140.839C141.118 93.9724 141.54 95.2243 142.097 96.4178C142.78 97.8936 143.668 99.2651 144.736 100.491C145.339 101.182 145.993 101.825 146.693 102.416L147.845 103.291C148.039 103.443 148.244 103.58 148.458 103.701L149.098 104.096C152.151 105.881 155.672 106.705 159.201 106.46C162.73 106.215 166.102 104.911 168.879 102.72C170.985 101.023 172.68 98.8724 173.838 96.4285C174.141 95.8039 174.399 95.159 174.611 94.4983C174.735 94.1718 174.835 93.8368 174.91 93.4959C174.995 93.1547 175.086 92.8134 175.166 92.4722C175.437 91.0676 175.543 89.6359 175.48 88.2066C175.456 87.5008 175.387 86.7973 175.272 86.1005C175.223 85.7533 175.152 85.4096 175.059 85.0714C174.979 84.7302 174.91 84.3889 174.814 84.053C174.426 82.731 173.89 81.4574 173.214 80.2566C171.877 77.9454 170.038 75.9631 167.834 74.4555C164.927 72.4933 161.499 71.4449 157.991 71.4449C154.484 71.4449 151.056 72.4933 148.149 74.4555C147.749 74.7541 147.328 75.0207 146.954 75.3299L145.888 76.2843C145.547 76.6096 145.248 76.9615 144.934 77.2921C144.622 77.614 144.331 77.956 144.064 78.3158C143.076 79.6078 142.272 81.0308 141.676 82.5441C141.189 83.7839 140.848 85.0756 140.657 86.3937V86.3671L135.325 90.0994L140.721 86.4257C141.166 83.5117 142.346 80.759 144.15 78.4278C144.415 78.0717 144.704 77.7333 145.014 77.4147C145.328 77.0841 145.627 76.7322 145.968 76.4123L147.034 75.4739C147.402 75.1646 147.818 74.9034 148.223 74.6048C150.204 73.2626 152.441 72.3453 154.794 71.9104C157.147 71.4756 159.565 71.5327 161.894 72.0782C164.224 72.6237 166.415 73.6457 168.331 75.0799C170.246 76.514 171.843 78.3293 173.022 80.4113C173.697 81.5897 174.234 82.8421 174.622 84.1436C174.718 84.4742 174.787 84.8101 174.867 85.1514C174.958 85.4861 175.027 85.8263 175.075 86.1698C175.187 86.8598 175.257 87.556 175.283 88.2546C175.342 89.6626 175.236 91.0726 174.968 92.4562C174.894 92.7921 174.798 93.128 174.718 93.4639C174.642 93.8023 174.544 94.1354 174.425 94.461C174.212 95.1137 173.955 95.7515 173.657 96.3698C172.516 98.7897 170.84 100.919 168.757 102.598C166.01 104.773 162.67 106.07 159.175 106.32C155.679 106.569 152.19 105.758 149.162 103.995L148.522 103.605C148.309 103.484 148.106 103.347 147.914 103.195L146.768 102.331C144.827 100.709 143.262 98.6838 142.182 96.3965C141.619 95.2047 141.193 93.9525 140.913 92.6641C140.912 92.6584 140.91 92.653 140.906 92.6483C140.903 92.6436 140.898 92.6396 140.893 92.6366C140.888 92.6336 140.883 92.6316 140.877 92.6309C140.871 92.6301 140.866 92.6305 140.86 92.6321C140.852 92.6349 140.844 92.6398 140.839 92.6464C140.833 92.6529 140.829 92.6609 140.828 92.6695L140.887 92.6321L135.309 90.0781Z" fill="#263238"/>
<path d="M165.462 87.924C165.3 86.9784 164.851 86.1054 164.177 85.4233C163.542 84.728 162.704 84.2504 161.783 84.0584C161.292 83.9721 160.79 83.9858 160.305 84.0985C159.821 84.2111 159.364 84.4206 158.962 84.7142C158.485 85.0655 158.103 85.5288 157.848 86.0632C157.56 85.6084 157.179 85.2209 156.728 84.9275C156.307 84.6623 155.837 84.4851 155.346 84.4062C154.855 84.3274 154.353 84.3488 153.87 84.4689C152.963 84.7232 152.159 85.2567 151.572 85.9939C150.945 86.7196 150.556 87.6205 150.457 88.5745C150.35 89.7939 150.64 91.0153 151.284 92.0563C152.025 93.1111 153.009 93.9724 154.152 94.5677C156.003 95.5967 158.418 96.8871 158.418 96.8871C158.418 96.8871 160.386 95.2875 162.15 94.1518C163.251 93.4811 164.175 92.5558 164.843 91.4538C165.424 90.3746 165.641 89.1365 165.462 87.924Z" fill="#FF725E"/>
<path d="M184.032 206.198C183.995 206.246 183.665 206.043 183.291 205.75C182.918 205.456 182.652 205.169 182.694 205.121C182.737 205.073 183.067 205.27 183.435 205.568C183.803 205.867 184.075 206.155 184.032 206.198Z" fill="#263238"/>
<path d="M194.142 191.087C194.282 189.679 194.165 188.257 193.796 186.891C193.353 185.547 192.319 184.315 190.932 184.027C189.333 183.702 187.733 184.699 186.853 186.048C185.974 187.397 185.664 189.029 185.403 190.623C183.595 201.595 182.924 212.725 183.404 223.836L189.861 224.742C192.718 213.145 193.625 203.014 194.142 191.087Z" fill="#455A64"/>
<path d="M190.036 183.979C190.036 183.979 190.036 184.017 190.01 184.081C189.983 184.145 189.946 184.257 189.903 184.374L189.471 185.488C189.381 185.734 189.263 185.995 189.167 186.299C189.071 186.603 188.965 186.928 188.853 187.274L188.49 188.399L188.154 189.679C187.616 191.786 187.2 193.923 186.907 196.078C186.56 198.504 186.331 201.196 186.149 204.022C185.819 209.685 185.766 214.825 185.616 218.541C185.547 220.397 185.483 221.9 185.414 222.94C185.376 223.441 185.35 223.841 185.328 224.134C185.328 224.257 185.328 224.358 185.302 224.444C185.308 224.479 185.308 224.515 185.302 224.55C185.296 224.515 185.296 224.479 185.302 224.444C185.302 224.358 185.302 224.257 185.302 224.129C185.302 223.836 185.302 223.436 185.339 222.935C185.382 221.868 185.419 220.391 185.467 218.536C185.574 214.803 185.6 209.679 185.931 204.011C186.112 201.18 186.347 198.482 186.709 196.046C187.011 193.888 187.445 191.751 188.01 189.647C188.133 189.199 188.25 188.767 188.357 188.362C188.463 187.957 188.618 187.594 188.741 187.242C188.863 186.891 188.97 186.565 189.071 186.267C189.173 185.968 189.301 185.707 189.397 185.462L189.871 184.363C189.919 184.246 189.962 184.155 189.999 184.075C190.009 184.042 190.022 184.01 190.036 183.979Z" fill="#263238"/>
<path d="M190.639 183.985C190.975 184.382 191.242 184.832 191.428 185.318C191.922 186.653 192.122 188.079 192.015 189.498C191.844 193.07 191.524 197.986 191.098 203.42C190.671 208.853 190.196 213.764 189.818 217.315C189.626 219.09 189.461 220.514 189.338 221.516C189.279 221.991 189.231 222.375 189.194 222.652C189.194 222.775 189.162 222.871 189.151 222.951C189.155 222.984 189.155 223.018 189.151 223.052C189.148 223.016 189.148 222.981 189.151 222.945C189.151 222.865 189.151 222.769 189.151 222.647C189.178 222.369 189.21 221.986 189.253 221.506C189.354 220.487 189.493 219.058 189.658 217.299C189.999 213.742 190.447 208.832 190.874 203.404C191.3 197.976 191.641 193.054 191.855 189.493C191.976 188.093 191.804 186.684 191.348 185.355C191.15 184.879 190.913 184.421 190.639 183.985Z" fill="#263238"/>
<path d="M195.134 200.706C194.709 200.671 194.294 200.563 193.907 200.386C193.496 200.278 193.108 200.097 192.761 199.853C193.185 199.887 193.6 199.995 193.987 200.172C194.399 200.279 194.787 200.46 195.134 200.706Z" fill="#263238"/>
<path d="M195.896 194.121C195.546 194.4 195.151 194.618 194.729 194.766C194.337 194.983 193.912 195.13 193.47 195.203C193.818 194.923 194.211 194.705 194.633 194.558C195.026 194.342 195.453 194.194 195.896 194.121Z" fill="#263238"/>
<path d="M195.491 188.746C195.178 188.837 194.847 188.854 194.526 188.794C194.202 188.809 193.878 188.747 193.582 188.613C193.894 188.521 194.223 188.504 194.542 188.565C194.868 188.551 195.193 188.613 195.491 188.746Z" fill="#263238"/>
<path d="M188.821 185.302C188.767 185.334 188.485 184.982 188.191 184.512C187.982 184.246 187.832 183.936 187.754 183.606C187.807 183.569 188.09 183.921 188.389 184.39C188.687 184.859 188.879 185.27 188.821 185.302Z" fill="#263238"/>
<path d="M186.603 188.559C186.603 188.623 186.192 188.666 185.685 188.655C185.375 188.686 185.062 188.64 184.774 188.522C184.774 188.458 185.184 188.416 185.691 188.426C186.197 188.437 186.603 188.485 186.603 188.559Z" fill="#263238"/>
<path d="M185.04 195.054C184.702 195.04 184.372 194.949 184.075 194.787C183.542 194.585 183.169 194.371 183.195 194.307C183.533 194.325 183.862 194.416 184.161 194.574C184.667 194.782 185.062 194.995 185.04 195.054Z" fill="#263238"/>
<path d="M184.87 200.519C184.87 200.583 184.512 200.716 184.049 200.812C183.585 200.908 183.19 200.94 183.179 200.876C183.169 200.812 183.531 200.684 184.001 200.588C184.28 200.493 184.579 200.469 184.87 200.519Z" fill="#263238"/>
<path d="M184.123 209.466C184.123 209.53 183.745 209.653 183.254 209.738C182.764 209.823 182.348 209.85 182.337 209.786C182.326 209.722 182.716 209.599 183.212 209.514C183.707 209.429 184.113 209.402 184.123 209.466Z" fill="#263238"/>
<path d="M183.633 214.403C183.659 214.462 183.334 214.691 182.902 214.937C182.47 215.182 182.097 215.305 182.065 215.246C182.033 215.187 182.364 214.958 182.796 214.713C183.227 214.467 183.601 214.345 183.633 214.403Z" fill="#263238"/>
<path d="M187.669 220.018C187.61 220.05 187.328 219.661 187.034 219.144C186.821 218.847 186.672 218.509 186.597 218.152C186.656 218.12 186.938 218.514 187.232 219.026C187.445 219.323 187.594 219.661 187.669 220.018Z" fill="#263238"/>
<path d="M188.826 210.692C188.869 210.74 188.554 211.124 188.117 211.551C187.68 211.977 187.296 212.287 187.253 212.239C187.21 212.191 187.525 211.812 187.957 211.386C188.389 210.959 188.783 210.65 188.826 210.692Z" fill="#263238"/>
<path d="M188.57 205.808C188.522 205.851 188.229 205.611 187.914 205.275C187.6 204.939 187.381 204.625 187.429 204.582C187.477 204.539 187.765 204.779 188.085 205.115C188.405 205.451 188.613 205.766 188.57 205.808Z" fill="#263238"/>
<path d="M189.37 199.565C189.418 199.607 189.151 199.981 188.778 200.396C188.405 200.812 188.064 201.116 188.021 201.074C187.978 201.031 188.234 200.658 188.608 200.242C188.981 199.826 189.322 199.522 189.37 199.565Z" fill="#263238"/>
<path d="M189.802 195.032C189.759 195.08 189.391 194.793 188.981 194.387C188.57 193.982 188.277 193.625 188.32 193.577C188.362 193.529 188.735 193.822 189.141 194.222C189.546 194.622 189.86 194.99 189.802 195.032Z" fill="#263238"/>
<path d="M190.703 188.906C190.638 189.239 190.498 189.553 190.292 189.823C190.01 190.298 189.733 190.655 189.679 190.623C189.746 190.29 189.886 189.977 190.09 189.706C190.372 189.231 190.65 188.874 190.703 188.906Z" fill="#263238"/>
<path d="M192.366 183.228C192.425 183.26 192.26 183.67 192.004 184.145C191.748 184.619 191.471 184.982 191.433 184.955C191.485 184.624 191.61 184.308 191.801 184.033C192.057 183.563 192.313 183.228 192.366 183.228Z" fill="#263238"/>
<path d="M194.254 185.808C194.254 185.867 194.025 186.048 193.678 186.213C193.332 186.379 193.028 186.469 193.001 186.411C192.975 186.352 193.23 186.171 193.577 186.005C193.924 185.84 194.228 185.755 194.254 185.808Z" fill="#263238"/>
<path d="M194.302 206.198C193.861 206.203 193.427 206.096 193.038 205.888C192.621 205.749 192.244 205.509 191.94 205.19C192.352 205.309 192.751 205.472 193.129 205.675C193.537 205.809 193.929 205.985 194.302 206.198Z" fill="#263238"/>
<path d="M193.534 210.511C193.534 210.575 193.155 210.703 192.665 210.799C192.174 210.895 191.764 210.922 191.753 210.858C191.742 210.794 192.126 210.666 192.622 210.57C192.918 210.48 193.23 210.46 193.534 210.511Z" fill="#263238"/>
<path d="M192.58 217.917C191.82 217.459 191.252 216.741 190.98 215.896C191.272 216.212 191.537 216.551 191.775 216.91C192.071 217.222 192.341 217.559 192.58 217.917Z" fill="#263238"/>
<path d="M182.193 221.303C182.156 221.255 182.417 220.962 182.78 220.647C183.142 220.333 183.478 220.114 183.515 220.173C183.553 220.231 183.297 220.514 182.929 220.823C182.561 221.132 182.236 221.351 182.193 221.303Z" fill="#263238"/>
<path d="M179.207 205.142C178.791 203.83 178.002 202.3 176.621 202.279C176.211 202.303 175.815 202.436 175.474 202.665C175.132 202.894 174.859 203.209 174.68 203.58C174.302 204.312 174.118 205.129 174.147 205.952C174.317 211.801 175.315 217.596 177.112 223.164H182.156C182.1 217.041 181.106 210.963 179.207 205.142Z" fill="#455A64"/>
<path d="M170.073 196.877C169.825 195.651 169.172 194.543 168.22 193.73C167.268 192.917 166.072 192.447 164.821 192.393C162.593 192.782 161.729 194.979 161.462 197.229C161.196 199.479 161.9 201.713 162.587 203.868L169.226 224.662L175.501 223.974C173.529 214.686 172.388 206.08 170.073 196.877Z" fill="#455A64"/>
<path d="M176.621 202.279C176.462 202.506 176.319 202.745 176.195 202.993C175.937 203.708 175.856 204.474 175.96 205.227C176.056 206.182 176.163 207.36 176.328 208.602C176.493 209.845 176.717 211.268 177 212.708C177.57 215.609 178.216 218.205 178.599 220.103C178.807 221.047 178.962 221.82 179.063 222.353C179.106 222.599 179.138 222.801 179.17 222.967C179.178 223.039 179.178 223.113 179.17 223.185C179.136 223.12 179.112 223.05 179.101 222.977C179.063 222.812 179.01 222.615 178.951 222.369C178.818 221.81 178.642 221.052 178.418 220.141C177.965 218.253 177.298 215.662 176.728 212.751C176.445 211.3 176.221 209.903 176.067 208.629C175.987 207.994 175.933 207.387 175.88 206.816C175.827 206.246 175.774 205.723 175.747 205.217C175.657 204.441 175.765 203.656 176.061 202.934C176.199 202.678 176.39 202.455 176.621 202.279Z" fill="#263238"/>
<path d="M164.923 192.217C164.644 192.536 164.391 192.877 164.166 193.236C163.589 194.238 163.262 195.365 163.211 196.52C163.183 198.235 163.446 199.943 163.99 201.569C164.523 203.436 165.142 205.488 165.781 207.637C167.029 211.94 168.165 215.832 168.981 218.68C169.375 220.077 169.7 221.218 169.93 222.034L170.175 222.951C170.21 223.054 170.233 223.162 170.244 223.271C170.196 223.172 170.158 223.068 170.132 222.961C170.058 222.732 169.962 222.428 169.844 222.06C169.594 221.25 169.247 220.114 168.826 218.728C167.978 215.886 166.821 211.999 165.547 207.707C164.918 205.574 164.32 203.5 163.771 201.628C163.231 199.978 162.984 198.245 163.041 196.509C163.102 195.332 163.46 194.19 164.08 193.188C164.304 192.819 164.589 192.491 164.923 192.217Z" fill="#263238"/>
<path d="M174.147 223.281C174.085 223.189 174.037 223.088 174.003 222.983C173.923 222.78 173.79 222.487 173.646 222.098C173.347 221.33 172.963 220.194 172.579 218.765C172.196 217.336 171.785 215.625 171.406 213.705C171.028 211.785 170.644 209.674 170.228 207.461C169.812 205.249 169.306 203.164 168.74 201.298C168.252 199.642 167.64 198.026 166.912 196.461C166.415 195.408 165.849 194.389 165.216 193.412C165.003 193.06 164.805 192.809 164.683 192.622C164.614 192.535 164.555 192.44 164.507 192.34C164.585 192.419 164.656 192.505 164.72 192.596C164.848 192.772 165.061 193.017 165.285 193.364C165.95 194.327 166.54 195.339 167.05 196.392C167.808 197.953 168.439 199.572 168.938 201.234C169.545 203.268 170.049 205.333 170.447 207.419C170.857 209.631 171.252 211.743 171.609 213.668C171.966 215.593 172.35 217.299 172.729 218.722C173.107 220.146 173.465 221.292 173.736 222.071C173.864 222.46 173.982 222.759 174.051 222.967C174.092 223.069 174.124 223.174 174.147 223.281Z" fill="#263238"/>
<path d="M162.71 202.833C162.71 202.897 162.385 203.03 161.948 203.137C161.51 203.244 161.148 203.281 161.132 203.217C161.116 203.153 161.457 203.02 161.894 202.913C162.332 202.806 162.694 202.774 162.71 202.833Z" fill="#263238"/>
<path d="M162.043 198.552C161.697 198.651 161.336 198.689 160.977 198.664C160.622 198.714 160.262 198.703 159.911 198.632C160.245 198.479 160.611 198.411 160.977 198.434C161.337 198.383 161.703 198.424 162.043 198.552Z" fill="#263238"/>
<path d="M162.753 194.638C162.71 194.686 162.369 194.467 161.99 194.142C161.612 193.817 161.34 193.523 161.377 193.476C161.414 193.428 161.761 193.646 162.139 193.966C162.518 194.286 162.795 194.59 162.753 194.638Z" fill="#263238"/>
<path d="M164.667 191.017C164.731 191.017 164.715 191.337 164.704 191.705C164.693 192.073 164.704 192.382 164.624 192.393C164.544 192.404 164.459 192.095 164.469 191.7C164.48 191.305 164.608 191.001 164.667 191.017Z" fill="#263238"/>
<path d="M168.581 192.724C168.629 192.761 168.479 193.07 168.234 193.412C167.989 193.753 167.754 194.009 167.701 193.945C167.648 193.881 167.802 193.598 168.042 193.257C168.282 192.916 168.527 192.686 168.581 192.724Z" fill="#263238"/>
<path d="M171.14 197.133C171.14 197.192 170.836 197.384 170.415 197.554C169.993 197.725 169.626 197.821 169.599 197.762C169.572 197.704 169.903 197.512 170.324 197.341C170.745 197.171 171.092 197.091 171.14 197.133Z" fill="#263238"/>
<path d="M172.66 201.671C172.377 201.911 172.031 202.063 171.663 202.108C171.318 202.22 170.948 202.233 170.596 202.145C170.926 202.01 171.272 201.92 171.625 201.879C171.961 201.769 172.308 201.699 172.66 201.671Z" fill="#263238"/>
<path d="M165.584 200.38C165.525 200.38 165.584 200.05 165.685 199.682C165.787 199.314 165.941 199.031 166.005 199.053C166.069 199.074 166.005 199.383 165.904 199.751C165.803 200.119 165.648 200.402 165.584 200.38Z" fill="#263238"/>
<path d="M166.57 206.08C166.591 205.748 166.69 205.424 166.858 205.137C167.072 204.641 167.295 204.262 167.354 204.283C167.333 204.616 167.235 204.939 167.066 205.227C166.874 205.723 166.629 206.107 166.57 206.08Z" fill="#263238"/>
<path d="M164.134 207.637C164.134 207.701 163.713 207.589 163.233 207.44C162.753 207.291 162.364 207.152 162.374 207.088C162.69 207.047 163.011 207.093 163.302 207.221C163.793 207.376 164.16 207.584 164.134 207.637Z" fill="#263238"/>
<path d="M165.541 212.287C165.579 212.335 165.307 212.591 164.939 212.857C164.571 213.124 164.24 213.289 164.203 213.236C164.166 213.182 164.438 212.932 164.806 212.665C165.174 212.399 165.504 212.233 165.541 212.287Z" fill="#263238"/>
<path d="M166.666 216.915C166.666 216.979 166.352 217.112 165.925 217.213C165.499 217.315 165.142 217.352 165.126 217.288C165.11 217.224 165.445 217.096 165.872 216.989C166.299 216.883 166.65 216.856 166.666 216.915Z" fill="#263238"/>
<path d="M172.782 205.542C172.814 205.595 172.531 205.819 172.116 205.974C171.7 206.128 171.337 206.15 171.326 206.091C171.316 206.032 171.641 205.91 172.036 205.76C172.43 205.611 172.739 205.483 172.782 205.542Z" fill="#263238"/>
<path d="M173.657 212.745C173.63 212.804 173.289 212.703 172.899 212.516C172.51 212.329 172.212 212.137 172.238 212.079C172.265 212.02 172.606 212.127 172.995 212.308C173.385 212.489 173.683 212.687 173.657 212.745Z" fill="#263238"/>
<path d="M175.198 217.885C174.511 217.782 173.857 217.525 173.283 217.133C173.631 217.152 173.972 217.244 174.281 217.405C174.618 217.497 174.931 217.66 175.198 217.885Z" fill="#263238"/>
<path d="M166.911 221.943C166.885 221.884 167.295 221.607 167.77 221.228C168.244 220.85 168.612 220.525 168.66 220.567C168.708 220.61 168.41 221.026 167.914 221.41C167.634 221.675 167.288 221.859 166.911 221.943Z" fill="#263238"/>
<path d="M170.991 219.32C170.927 219.32 170.836 218.978 170.682 218.578C170.527 218.179 170.356 217.859 170.41 217.821C170.463 217.784 170.73 218.061 170.895 218.493C171.06 218.925 171.055 219.314 170.991 219.32Z" fill="#263238"/>
<path d="M169.908 213.118C169.871 213.172 169.61 213.044 169.322 212.836C169.034 212.628 168.831 212.42 168.868 212.372C168.906 212.324 169.167 212.441 169.455 212.649C169.743 212.857 169.946 213.086 169.908 213.118Z" fill="#263238"/>
<path d="M179.415 203.398C179.452 203.452 179.196 203.708 178.839 203.969C178.482 204.23 178.167 204.401 178.13 204.347C178.093 204.294 178.349 204.044 178.701 203.782C179.053 203.521 179.372 203.35 179.415 203.398Z" fill="#263238"/>
<path d="M180.844 207.317C180.565 207.443 180.252 207.475 179.954 207.408C179.458 207.355 179.079 207.189 179.1 207.125C179.393 207.096 179.688 207.114 179.975 207.179C180.449 207.221 180.839 207.253 180.844 207.317Z" fill="#263238"/>
<path d="M174.691 208.192C174.691 208.256 174.334 208.389 173.848 208.421C173.558 208.475 173.257 208.436 172.99 208.309C172.99 208.245 173.374 208.218 173.838 208.192C174.302 208.165 174.675 208.128 174.691 208.192Z" fill="#263238"/>
<path d="M175.219 204.491C175.219 204.555 174.835 204.566 174.424 204.374C174.014 204.182 173.779 203.894 173.822 203.841C173.865 203.788 174.147 203.985 174.52 204.155C174.894 204.326 175.224 204.427 175.219 204.491Z" fill="#263238"/>
<path d="M181.372 211.519C181.34 211.572 180.956 211.391 180.514 211.114C180.071 210.836 179.746 210.58 179.778 210.516C179.81 210.452 180.199 210.644 180.636 210.922C181.073 211.199 181.409 211.487 181.372 211.519Z" fill="#263238"/>
<path d="M196.397 222.508H163.552V228.331H196.397V222.508Z" fill="#FF725E"/>
<path d="M166.005 227.174L169.999 244.566H189.572L193.939 227.174H166.005Z" fill="#FF725E"/>
<path d="M196.376 228.336C196.376 228.4 188.97 228.448 179.847 228.448C170.724 228.448 163.318 228.4 163.318 228.336C163.318 228.272 170.724 228.219 179.847 228.219C188.97 228.219 196.376 228.272 196.376 228.336Z" fill="#263238"/>
<path d="M178.109 208.32C178.055 208.357 177.831 208.096 177.607 207.739C177.383 207.381 177.25 207.067 177.303 207.029C177.357 206.992 177.581 207.259 177.805 207.616C178.029 207.973 178.167 208.288 178.109 208.32Z" fill="#263238"/>
<path d="M178.125 213.007C178.061 213.007 178.125 212.591 178.296 212.121C178.466 211.652 178.626 211.29 178.685 211.311C178.743 211.332 178.685 211.727 178.514 212.196C178.344 212.665 178.184 213.023 178.125 213.007Z" fill="#263238"/>
<path d="M179.725 217.923C179.488 217.669 179.307 217.37 179.191 217.043C179.008 216.746 178.891 216.413 178.85 216.067C178.909 216.067 179.154 216.43 179.383 216.942C179.569 217.239 179.685 217.574 179.725 217.923Z" fill="#263238"/>
<path d="M176.259 221.879C176.211 221.836 176.403 221.532 176.696 221.196C176.989 220.86 177.261 220.626 177.309 220.663C177.357 220.701 177.16 221.01 176.872 221.346C176.584 221.682 176.307 221.922 176.259 221.879Z" fill="#263238"/>
<path d="M175.528 214.686C175.528 214.745 175.203 214.745 174.824 214.686C174.446 214.627 174.147 214.515 174.158 214.451C174.169 214.387 174.483 214.393 174.862 214.451C175.24 214.51 175.539 214.633 175.528 214.686Z" fill="#263238"/>
<path d="M116.114 16.7903L112.488 17.0729L112.424 9.26694C112.421 9.05854 112.498 8.85679 112.638 8.7031C112.779 8.54941 112.973 8.45545 113.181 8.44049L114.28 8.35518C114.49 8.33994 114.698 8.40619 114.861 8.54019C115.024 8.67419 115.129 8.86569 115.154 9.07499L116.114 16.7903Z" fill="#FF725E"/>
<path d="M114.152 15.4947C114.152 15.4947 87.6094 17.3022 77.788 23.21C77.788 23.21 63.9782 27.0277 49.9765 38.3634C41.349 45.3951 33.3624 53.1783 26.1106 61.6215C26.1106 61.6215 44.8098 55.5004 61.0403 65.8177C61.0403 65.8177 94.3597 59.67 116.717 67.7532C116.717 67.7532 165.168 62.0214 174.563 66.4629C174.563 66.4629 185.435 58.177 206.432 61.3069C206.432 61.3069 192.329 45.215 178.29 35.1269C164.251 25.0389 159.943 25.7694 159.943 25.7694C159.943 25.7694 148.356 16.0545 114.152 15.4947Z" fill="#FF725E"/>
<g opacity="0.3">
<path d="M206.358 61.3069C185.36 58.1717 174.489 66.4575 174.489 66.4575C165.088 62.0214 116.642 67.7479 116.642 67.7479C94.2852 59.67 60.9604 65.8177 60.9604 65.8177C44.7353 55.495 26.0308 61.6214 26.0308 61.6214C26.0308 61.6214 35.7669 53.2076 45.8817 54.194C45.8817 54.194 70.7126 41.1201 117.639 51.2028C117.639 51.2028 161.729 41.2427 189.247 54.2633C189.247 54.2633 195.795 54.8445 206.358 61.2962" fill="black"/>
</g>
<path d="M206.331 61.3069L206.054 61.1576L205.243 60.6937C204.534 60.2725 203.468 59.6753 202.044 58.9448C200.317 58.0463 198.547 57.2348 196.739 56.5134C195.672 56.0816 194.515 55.6657 193.262 55.2871C191.938 54.8637 190.581 54.5534 189.205 54.3593H189.173C184.904 52.4108 180.434 50.9374 175.843 49.9658C173.278 49.4326 170.564 48.8994 167.711 48.5902C166.288 48.3929 164.827 48.2809 163.339 48.1316C161.852 47.9823 160.332 47.9023 158.786 47.849C152.207 47.5753 145.617 47.7231 139.058 48.2916C131.859 48.875 124.702 49.8989 117.628 51.3574H117.57L115.97 51.0535C112.435 50.3924 108.959 49.6459 105.493 49.2247C103.76 48.9954 102.054 48.6915 100.347 48.5262L95.2768 48.0516C88.893 47.5065 82.4788 47.412 76.0817 47.769C63.9995 48.4782 53.4635 50.7923 45.8815 54.29H45.8548C42.8129 54.0784 39.76 54.4959 36.8865 55.5164C34.7451 56.2718 32.6825 57.2344 30.7281 58.3903C29.5043 59.108 28.319 59.8893 27.177 60.731C26.7877 61.019 26.4998 61.2642 26.3025 61.3975L26.0093 61.6215L26.2865 61.3762C26.4785 61.2162 26.7611 60.987 27.145 60.6937C28.2744 59.8332 29.453 59.0392 30.6747 58.3156C32.6245 57.1379 34.6877 56.159 36.8332 55.3937C39.733 54.3426 42.8203 53.9086 45.8975 54.1194H45.8442C53.4635 50.5736 64.0048 48.2542 76.119 47.5078C82.5278 47.1359 88.9549 47.2214 95.3514 47.7637L100.433 48.2382C102.139 48.4142 103.851 48.7075 105.583 48.9367C109.06 49.3526 112.515 50.1044 116.082 50.7656L117.682 51.0695H117.618C124.705 49.6085 131.876 48.5864 139.09 48.009C145.662 47.4417 152.264 47.301 158.855 47.5877C160.401 47.6464 161.926 47.7744 163.419 47.8757C164.912 47.977 166.373 48.1476 167.797 48.3502C170.66 48.6915 173.379 49.1873 175.949 49.7419C180.538 50.7352 185.005 52.2282 189.269 54.194C190.654 54.3983 192.02 54.7157 193.353 55.1431C194.611 55.5324 195.774 55.9589 196.835 56.3908C198.642 57.1246 200.411 57.9503 202.135 58.8648C203.537 59.6113 204.598 60.2192 205.302 60.651L206.096 61.1363L206.331 61.3069Z" fill="#263238"/>
<path d="M79.8671 21.7971C79.7524 21.9092 79.6294 22.0126 79.4992 22.1063L78.4328 22.9594C77.4944 23.6899 76.1454 24.7563 74.4925 26.0946C71.192 28.7606 66.7079 32.5676 61.9784 37.0038C57.249 41.44 53.17 45.6629 50.2907 48.8034C48.8511 50.3657 47.6994 51.64 46.9156 52.5358L45.9985 53.5542C45.898 53.6787 45.7855 53.793 45.6626 53.8955C45.7534 53.764 45.8513 53.6376 45.9559 53.5169L46.8303 52.4505C47.5928 51.5387 48.7231 50.2377 50.1468 48.6595C52.9887 45.4923 57.0783 41.2374 61.7865 36.7905C66.4946 32.3437 71.0267 28.6006 74.3645 25.9347C76.0335 24.6177 77.4038 23.5726 78.3635 22.8688L79.4672 22.0583C79.5936 21.961 79.7273 21.8737 79.8671 21.7971Z" fill="#263238"/>
<path d="M114.152 15.4947C114.204 15.6035 114.243 15.718 114.269 15.8359C114.338 16.0918 114.434 16.4224 114.552 16.8383C114.669 17.2542 114.818 17.8034 114.952 18.4379C115.085 19.0724 115.272 19.7709 115.416 20.5707C115.735 22.1703 116.029 24.0578 116.29 26.1746C116.551 28.2914 116.733 30.6374 116.866 33.1061C117.116 38.0275 117.148 42.485 117.212 45.7109C117.212 47.3105 117.266 48.5901 117.282 49.5286V50.563C117.296 50.6834 117.296 50.8051 117.282 50.9255C117.256 50.8082 117.244 50.6884 117.244 50.5683C117.244 50.3017 117.207 49.9605 117.18 49.5019C117.127 48.6008 117.074 47.2998 117.02 45.6842C116.908 42.4851 116.844 38.0062 116.594 33.0955C116.461 30.6374 116.269 28.2967 116.061 26.1639C115.853 24.0311 115.528 22.1489 115.245 20.5654C115.117 19.7709 114.952 19.0617 114.829 18.4326C114.706 17.8034 114.578 17.2702 114.472 16.833L114.242 15.8199C114.2 15.7152 114.17 15.6061 114.152 15.4947Z" fill="#263238"/>
<path d="M189.269 54.274C189.172 54.1703 189.083 54.0599 189.002 53.9434L188.282 52.973C187.669 52.1146 186.747 50.9042 185.574 49.4379C184.401 47.9716 182.956 46.2387 181.271 44.4259C179.586 42.613 177.672 40.6508 175.576 38.6887C171.38 34.775 167.317 31.5225 164.379 29.1978L160.817 26.4678L159.863 25.7214C159.747 25.6398 159.64 25.5469 159.543 25.4441C159.668 25.5088 159.785 25.5855 159.895 25.6734L160.881 26.3772C161.734 26.9957 162.961 27.9021 164.459 29.0432C167.45 31.3252 171.535 34.5617 175.747 38.4861C177.842 40.4536 179.762 42.4157 181.441 44.2553C183.121 46.0948 184.55 47.8277 185.707 49.3153C186.864 50.8029 187.76 52.0346 188.346 52.909L189.029 53.9114C189.122 54.023 189.202 54.1446 189.269 54.274Z" fill="#263238"/>
<path d="M174.547 66.4575C174.384 66.2317 174.239 65.9928 174.115 65.7431C173.827 65.2099 173.459 64.5594 173.011 63.7542C172.084 62.08 170.804 59.7606 169.338 57.2279C167.871 54.6952 166.506 52.4292 165.509 50.7922L164.326 48.8621C164.17 48.6306 164.034 48.3862 163.92 48.1316C164.105 48.3407 164.271 48.5655 164.416 48.8034C164.72 49.2406 165.152 49.8698 165.675 50.6963C166.741 52.2959 168.117 54.5566 169.583 57.0946C171.049 59.6326 172.302 61.968 173.182 63.6689C173.625 64.522 173.976 65.2152 174.211 65.7004C174.346 65.9418 174.459 66.1953 174.547 66.4575Z" fill="#263238"/>
<path d="M115.895 51.0748C115.97 51.0748 116.151 54.8765 116.3 59.5686C116.45 64.2608 116.514 68.0678 116.434 68.0731C116.354 68.0785 116.172 64.2714 116.023 59.5793C115.874 54.8872 115.815 51.0802 115.895 51.0748Z" fill="#263238"/>
<path d="M67.0814 48.6541C67.1507 48.6541 65.759 52.5411 63.9622 57.2652C62.1653 61.9894 60.6564 65.7964 60.5817 65.7964C60.5071 65.7964 61.9094 61.9147 63.7009 57.1853C65.4924 52.4558 67.0067 48.6275 67.0814 48.6541Z" fill="#263238"/>
<path d="M121.521 15.7666C121.521 15.8092 120.737 15.7666 119.479 15.7026C118.22 15.6386 116.487 15.612 114.573 15.6706C112.659 15.7293 110.921 15.8572 109.668 15.9585C108.994 16.0453 108.316 16.0916 107.636 16.0972C107.809 16.0366 107.988 15.9972 108.169 15.9799C108.516 15.9159 109.023 15.8412 109.646 15.7666C110.899 15.612 112.638 15.4467 114.562 15.3933C116.207 15.3396 117.854 15.3769 119.495 15.5053C120.124 15.5533 120.63 15.612 120.977 15.6599C121.161 15.6757 121.344 15.7114 121.521 15.7666Z" fill="#263238"/>
<path d="M55.7507 33.9326C56.0923 33.8108 56.4555 33.7618 56.8171 33.7886C57.6902 33.7952 58.5532 33.9765 59.3551 34.3218C60.1539 34.6615 60.8784 35.1542 61.4879 35.7721C61.7536 36.0027 61.9711 36.2836 62.1278 36.5986C61.8572 36.3728 61.5991 36.1326 61.3546 35.8788C60.7208 35.3202 60.0005 34.8682 59.2218 34.5404C58.4467 34.2161 57.6235 34.0215 56.7851 33.9646C56.44 33.9734 56.0947 33.9627 55.7507 33.9326Z" fill="white"/>
<path d="M116.589 35.8361C116.541 35.8229 116.494 35.8051 116.45 35.7828L116.061 35.6015L114.578 34.8817L113.512 34.3485C113.118 34.1672 112.675 33.9966 112.211 33.8153C111.267 33.4421 110.217 32.9515 109.012 32.573L107.119 31.9278C106.458 31.7038 105.749 31.5439 105.024 31.3413C103.584 30.9094 102.006 30.6215 100.353 30.2749C96.7444 29.6563 93.0886 29.3565 89.4276 29.3791C85.7677 29.4652 82.1226 29.8738 78.5344 30.6001C76.8922 30.9894 75.3353 31.3199 73.8956 31.7945C73.1812 32.0238 72.4773 32.2051 71.8215 32.445L69.9447 33.1435C68.7343 33.5594 67.6999 34.0819 66.7455 34.4818C66.2816 34.6951 65.8444 34.8764 65.4551 35.0683L64.3887 35.6015L62.9545 36.3853L62.5759 36.5773C62.5327 36.6033 62.486 36.623 62.4373 36.6359C62.4743 36.6037 62.5155 36.5768 62.5599 36.5559L62.9278 36.3373L64.3674 35.5269L65.4072 34.951C65.7964 34.7484 66.2283 34.5618 66.6868 34.3432C67.6146 33.9219 68.649 33.3887 69.886 32.9622L71.7629 32.2424C72.4187 31.9971 73.1225 31.8052 73.837 31.5759C75.2659 31.0853 76.8442 30.7441 78.4918 30.3495C85.7053 28.7954 93.1551 28.6849 100.411 30.0243C102.07 30.3709 103.653 30.6694 105.098 31.0907C105.818 31.3039 106.527 31.4692 107.194 31.6932L109.092 32.3597C110.313 32.7542 111.358 33.2554 112.291 33.65C112.76 33.8526 113.198 34.0286 113.592 34.2152L114.658 34.7484L116.087 35.5322L116.466 35.7348C116.512 35.7623 116.553 35.7964 116.589 35.8361Z" fill="white"/>
<path d="M177.538 40.3576L177.389 40.2776L176.967 40.027C176.594 39.8031 176.061 39.4565 175.368 39.0406C173.966 38.1928 171.913 36.9985 169.305 35.6708C166.252 34.108 163.093 32.7593 159.852 31.6345C155.887 30.2563 151.787 29.3054 147.62 28.7979C143.448 28.3168 139.23 28.3831 135.074 28.9952C133.265 29.2691 131.474 29.6519 129.71 30.1416C128.889 30.3922 128.111 30.6268 127.338 30.8934C126.564 31.16 125.861 31.4266 125.205 31.7145C123.069 32.5873 121.02 33.6584 119.084 34.9137C118.38 35.3402 117.889 35.7454 117.527 35.98L117.122 36.2573C117.077 36.2922 117.028 36.3225 116.978 36.348C116.978 36.348 117.015 36.3053 117.106 36.236L117.495 35.9374C117.841 35.6868 118.327 35.2656 119.02 34.823C120.943 33.523 122.99 32.4157 125.13 31.5172C125.797 31.2026 126.532 30.984 127.263 30.6747C127.993 30.3655 128.814 30.1416 129.641 29.9069C131.411 29.4012 133.212 29.0077 135.032 28.7286C139.219 28.0989 143.473 28.0289 147.679 28.5206C151.859 29.0334 155.97 29.997 159.942 31.3946C163.188 32.5324 166.347 33.9027 169.396 35.4948C172.003 36.8492 174.04 38.0702 175.426 38.95C176.125 39.3765 176.653 39.7444 177.026 39.979L177.431 40.251C177.471 40.2825 177.506 40.3183 177.538 40.3576Z" fill="white"/>
<path d="M183.292 38.9713C183.292 39.0672 181.964 38.9126 180.412 39.2699C179.487 39.534 178.608 39.9386 177.805 40.4696C177.805 40.4429 177.997 40.187 178.434 39.867C179.009 39.4555 179.66 39.1603 180.348 38.9979C181.033 38.8401 181.737 38.7826 182.438 38.8273C182.729 38.8188 183.019 38.8677 183.292 38.9713Z" fill="white"/>
<path d="M117.436 168.671L95.9592 173.769L97.3829 216.595C97.3829 216.595 96.3431 236.819 96.0126 244.348L123.014 244.518L124.251 216.115L125.034 198.68C125.365 191.339 123.521 184.065 119.734 177.768L116.402 172.228L116.221 169.364" fill="#263238"/>
<path d="M93.4054 244.545L96.1193 213.849L99.8517 173.529L75.9325 166.864L75.0048 171.833C75.0048 171.833 65.9404 193.348 66.1644 199.698C66.7562 217.491 65.8391 244.374 65.8391 244.374" fill="#263238"/>
<path d="M85.5833 179.991C85.5424 180.19 85.4742 180.382 85.3807 180.562C85.1629 181.069 84.9006 181.556 84.5969 182.017C83.6 183.56 82.2462 184.841 80.6499 185.75C79.0536 186.66 77.2618 187.172 75.4259 187.242C74.8741 187.268 74.3212 187.247 73.773 187.179C73.5712 187.168 73.3719 187.128 73.1812 187.061C73.1812 187.008 74.0396 187.147 75.4152 187.061C77.2064 186.926 78.9462 186.4 80.5126 185.52C82.0688 184.623 83.4071 183.392 84.4316 181.916C85.2207 180.775 85.5353 179.97 85.5833 179.991Z" fill="#455A64"/>
<path d="M120.662 186.752C120.48 186.743 120.301 186.709 120.129 186.651C119.63 186.534 119.139 186.388 118.657 186.213C115.446 185.082 112.585 183.134 110.355 180.562C110.015 180.178 109.698 179.773 109.406 179.351C109.286 179.208 109.187 179.048 109.113 178.877C109.15 178.845 109.646 179.49 110.499 180.428C112.777 182.893 115.585 184.807 118.711 186.027C119.9 186.496 120.673 186.709 120.662 186.752Z" fill="#455A64"/>
<path d="M99.7341 201.191C100.036 201.145 100.341 201.118 100.646 201.111C100.939 201.111 101.296 201.058 101.712 200.999C101.93 200.972 102.146 200.93 102.357 200.871C102.47 200.847 102.578 200.806 102.677 200.748C102.72 200.732 102.755 200.702 102.779 200.663C102.786 200.615 102.786 200.567 102.779 200.519C102.672 198.413 102.539 195.496 102.416 192.281C102.293 189.066 102.197 186.155 102.139 184.043C102.139 183.025 102.102 182.182 102.086 181.548C102.059 181.243 102.059 180.936 102.086 180.631C102.136 180.932 102.164 181.237 102.171 181.543C102.208 182.177 102.256 183.02 102.315 184.038C102.421 186.171 102.549 189.055 102.672 192.276C102.795 195.496 102.896 198.408 102.949 200.514V200.61C102.951 200.66 102.94 200.709 102.917 200.754C102.874 200.824 102.811 200.879 102.736 200.914C102.62 200.973 102.496 201.016 102.368 201.042C102.147 201.095 101.923 201.133 101.696 201.154C101.275 201.196 100.918 201.212 100.63 201.218H99.9474C99.8754 201.218 99.8037 201.209 99.7341 201.191Z" fill="#455A64"/>
<path d="M99.0463 181.847C99.2208 181.849 99.3916 181.897 99.5422 181.985C99.9657 182.209 100.305 182.564 100.507 182.998C100.65 183.298 100.725 183.626 100.726 183.958C100.712 184.34 100.59 184.71 100.374 185.024C100.135 185.404 99.7844 185.7 99.3702 185.872C98.9559 186.043 98.4986 186.082 98.0613 185.982C97.6241 185.883 97.2286 185.65 96.9294 185.316C96.6302 184.982 96.442 184.563 96.391 184.118C96.3268 183.735 96.3788 183.341 96.5403 182.988C96.684 182.687 96.8936 182.423 97.1535 182.214C97.5232 181.912 97.9823 181.74 98.4598 181.724C98.6328 181.705 98.8075 181.733 98.9663 181.804C98.9663 181.831 98.7851 181.804 98.4705 181.831C98.0291 181.883 97.6142 182.069 97.2814 182.364C97.0345 182.568 96.8455 182.834 96.7332 183.134C96.621 183.434 96.5894 183.759 96.6416 184.075C96.6906 184.466 96.8588 184.833 97.1235 185.125C97.3882 185.418 97.7364 185.621 98.1208 185.709C98.5053 185.796 98.9073 185.763 99.2723 185.614C99.6373 185.465 99.9474 185.207 100.161 184.875C100.346 184.613 100.458 184.307 100.487 183.988C100.516 183.669 100.461 183.348 100.326 183.057C100.153 182.648 99.8614 182.301 99.4889 182.06C99.2169 181.916 99.041 181.868 99.0463 181.847Z" fill="#455A64"/>
<path d="M107.327 106.143C107.327 106.143 111.619 105.408 116.189 109.342C120.758 113.277 145.152 135.005 145.152 135.005C145.152 135.005 148.943 146.064 141.889 151.294C137.255 154.733 119.937 146.565 119.937 146.565L107.327 106.143Z" fill="#FF725E"/>
<path d="M138.407 117.863C138.564 117.764 138.74 117.701 138.924 117.678C139.108 117.655 139.295 117.674 139.471 117.732C139.646 117.79 139.807 117.886 139.942 118.014C140.076 118.142 140.18 118.298 140.247 118.471C141.665 122.118 145.333 131.801 145.696 135.091C146.991 146.773 141.254 142.657 136.893 144.214C132.531 145.77 127.732 124.576 127.732 124.576L138.407 117.863Z" fill="#FF725E"/>
<path d="M143.158 126.405C143.014 126.573 142.851 126.723 142.673 126.853C142.347 127.125 141.862 127.508 141.244 127.951C138.011 130.276 134.422 132.06 130.617 133.235C129.151 133.683 128.17 133.662 128.18 133.582C128.191 133.502 128.415 133.582 128.831 133.502C129.417 133.392 129.994 133.24 130.558 133.048C132.424 132.412 134.246 131.653 136.013 130.777C137.777 129.896 139.48 128.899 141.11 127.791C141.739 127.37 142.241 127.013 142.587 126.767C142.762 126.624 142.953 126.502 143.158 126.405Z" fill="#263238"/>
<g opacity="0.3">
<path d="M118.828 141.158C119.152 142.204 119.787 143.127 120.649 143.802C121.51 144.478 122.557 144.875 123.65 144.941C124.743 145.006 125.83 144.737 126.766 144.169C127.702 143.601 128.443 142.761 128.889 141.761C129.55 140.279 129.508 138.562 129.422 136.962C129.151 131.156 128.612 125.36 127.823 119.607L126.026 117.959L125.285 118.983L125.765 140.049L122.219 142.001L118.828 141.158Z" fill="black"/>
</g>
<path d="M134.093 147.402C133.986 147.334 133.886 147.255 133.795 147.167C133.517 146.927 133.254 146.67 133.006 146.4C132.099 145.396 131.347 144.262 130.777 143.035C129.327 139.932 128.207 135.304 127.535 130.164C127.268 128.447 127.002 126.783 126.778 125.237V125.152L126.847 125.104C130.174 122.907 133.064 121.014 135.17 119.745C136.237 119.105 137.063 118.609 137.644 118.274L138.316 117.9C138.392 117.851 138.475 117.813 138.561 117.788C138.492 117.845 138.419 117.896 138.343 117.943L137.692 118.354L135.256 119.889C133.182 121.201 130.318 123.088 126.996 125.328L127.055 125.194C127.295 126.741 127.551 128.394 127.818 130.121C128.02 131.401 128.212 132.654 128.399 133.854C128.585 135.053 128.852 136.21 129.119 137.298C129.566 139.233 130.183 141.124 130.963 142.95C131.512 144.17 132.23 145.306 133.096 146.325C133.411 146.682 133.667 146.944 133.843 147.119C133.933 147.207 134.017 147.302 134.093 147.402Z" fill="#263238"/>
<path d="M129.332 138.876C127.861 141.385 127.418 144.366 128.095 147.194C127.894 146.813 127.76 146.4 127.7 145.973C127.306 143.915 127.624 141.785 128.601 139.932C128.784 139.542 129.031 139.185 129.332 138.876Z" fill="#263238"/>
<path d="M122.48 98.4493C122.571 97.8788 123.115 97.5162 123.547 97.1537C124.354 96.4976 124.965 95.6319 125.312 94.6515C125.66 93.6712 125.731 92.6141 125.517 91.5961C125.303 90.5782 124.813 89.6388 124.101 88.881C123.388 88.1232 122.481 87.5763 121.478 87.3002C120.974 87.2069 120.491 87.0265 120.049 86.767C119.02 86.0205 119.265 84.4476 118.828 83.2586C117.906 80.7312 114.221 80.4113 112.798 78.1346C111.923 76.7482 112.104 74.978 112.094 73.3358C112.083 71.6936 111.683 69.8007 110.222 69.0702C109.438 68.6703 108.484 68.6863 107.716 68.2544C106.117 67.364 106.085 65.1566 105.429 63.4557C104.874 62.1298 103.877 61.037 102.608 60.3634C101.338 59.6897 99.8742 59.4767 98.4653 59.7606C98.4653 59.7606 99.4623 57.2386 96.4338 56.1296C92.7707 54.7912 92.6694 57.3772 90.9419 55.8576C89.9981 55.0725 88.8157 54.6312 87.5883 54.606C86.361 54.5808 85.1614 54.9732 84.1863 55.719C83.6428 56.2558 83.06 56.7513 82.4427 57.2013C81.6429 57.6758 80.6832 57.7718 79.7767 58.0171C78.0708 58.5318 76.5819 59.5941 75.54 61.0397C74.4982 62.4853 73.9615 64.2338 74.0129 66.015L98.6252 104.384C99.5956 108.116 104.304 111.15 107.62 113.096C108.299 113.535 109.062 113.83 109.86 113.96C110.87 114.043 111.883 113.826 112.771 113.336C114.74 112.328 116.241 110.594 116.957 108.5C118.062 108.929 119.278 108.985 120.418 108.66C121.559 108.335 122.562 107.647 123.276 106.7C123.99 105.753 124.376 104.599 124.375 103.413C124.374 102.227 123.986 101.074 123.27 100.129C122.891 99.617 122.379 99.0732 122.48 98.4493Z" fill="#263238"/>
<path d="M74.7487 71.9175L74.3008 69.2248L90.0621 63.7916C94.9835 62.5332 101.121 66.7561 102.171 71.7255C103.333 77.2441 104.538 84.0317 104.485 88.2866C104.384 96.8177 98.1293 98.8439 98.1293 98.8439L99.3077 107.146L80.8484 110.084L74.7487 71.9175Z" fill="#FFBE9D"/>
<path d="M99.8196 78.7211C99.8432 78.8594 99.8394 79.001 99.8083 79.1378C99.7771 79.2747 99.7192 79.404 99.638 79.5184C99.5568 79.6328 99.4537 79.7301 99.3348 79.8046C99.2159 79.8792 99.0835 79.9295 98.9451 79.9527C98.8102 79.984 98.6704 79.9878 98.534 79.964C98.3975 79.9402 98.2673 79.8892 98.1509 79.8142C98.0346 79.7391 97.9345 79.6414 97.8566 79.5269C97.7787 79.4124 97.7246 79.2834 97.6974 79.1476C97.6737 79.0093 97.6776 78.8677 97.7087 78.7309C97.7399 78.594 97.7978 78.4647 97.879 78.3503C97.9602 78.2358 98.0632 78.1386 98.1821 78.064C98.301 77.9895 98.4335 77.9392 98.5719 77.9159C98.7068 77.8847 98.8466 77.8809 98.983 77.9047C99.1194 77.9285 99.2497 77.9795 99.3661 78.0545C99.4824 78.1296 99.5825 78.2273 99.6604 78.3418C99.7383 78.4563 99.7924 78.5853 99.8196 78.7211Z" fill="#263238"/>
<path d="M100.918 75.5219C100.806 75.6819 99.9048 75.202 98.7531 75.3726C97.6014 75.5432 96.839 76.2417 96.695 76.1191C96.551 75.9964 96.7217 75.7938 97.0522 75.4739C97.4931 75.0576 98.0517 74.7876 98.6518 74.7008C99.2511 74.6106 99.8636 74.7133 100.401 74.994C100.822 75.2073 100.977 75.4419 100.918 75.5219Z" fill="#263238"/>
<path d="M88.7878 80.358C88.8115 80.4967 88.8074 80.6387 88.7759 80.7758C88.7444 80.9129 88.6861 81.0425 88.6043 81.157C88.5226 81.2714 88.4189 81.3686 88.2994 81.4429C88.1799 81.5171 88.0469 81.567 87.908 81.5897C87.7735 81.6201 87.6342 81.6233 87.4984 81.5991C87.3626 81.5749 87.233 81.5238 87.1173 81.4488C87.0015 81.3738 86.9019 81.2764 86.8244 81.1623C86.7468 81.0482 86.6929 80.9198 86.6657 80.7845C86.642 80.6462 86.6458 80.5046 86.677 80.3677C86.7082 80.2309 86.766 80.1016 86.8472 79.9872C86.9285 79.8727 87.0315 79.7755 87.1504 79.7009C87.2693 79.6264 87.4017 79.5761 87.5401 79.5528C87.812 79.4986 88.0942 79.5523 88.3271 79.7026C88.56 79.8529 88.7253 80.0879 88.7878 80.358Z" fill="#263238"/>
<path d="M89.6088 77.3881C89.4968 77.5427 88.5957 77.0629 87.444 77.2335C86.2923 77.4041 85.5299 78.1079 85.3806 77.9853C85.3113 77.932 85.4072 77.66 85.7378 77.3348C86.18 76.9205 86.738 76.6508 87.3374 76.5616C87.9367 76.4715 88.5492 76.5742 89.0863 76.8549C89.5075 77.0788 89.6675 77.3135 89.6088 77.3881Z" fill="#263238"/>
<path d="M95.0473 85.3327C95.6262 85.0505 96.2391 84.8444 96.8708 84.7195C97.1641 84.6449 97.404 84.5436 97.452 84.3356C97.4332 84.028 97.3196 83.7337 97.1268 83.4932L95.9271 81.3604C94.2529 78.3425 92.9945 75.8418 93.1171 75.7778C93.2398 75.7139 94.7167 78.1026 96.3696 81.1098L97.5373 83.2426C97.774 83.5698 97.8873 83.9702 97.8573 84.373C97.8305 84.4834 97.7785 84.586 97.7055 84.673C97.6324 84.7599 97.5402 84.8288 97.436 84.8742C97.2789 84.9416 97.1142 84.99 96.9455 85.0181C96.3285 85.2024 95.6907 85.3081 95.0473 85.3327Z" fill="#263238"/>
<path d="M98.1293 98.8439C94.1085 99.496 89.9859 99.0369 86.207 97.5162C86.207 97.5162 89.8861 102.96 98.4279 100.929L98.1293 98.8439Z" fill="#EB996E"/>
<path d="M94.9671 88.1853C94.7077 87.9397 94.3897 87.7646 94.0433 87.6769C93.697 87.5891 93.334 87.5916 92.9889 87.6841C92.7375 87.7447 92.5007 87.8552 92.2928 88.0091C92.0849 88.163 91.91 88.3571 91.7786 88.5799C91.6532 88.7947 91.5967 89.0427 91.6167 89.2906C91.6368 89.5385 91.7323 89.7743 91.8906 89.9662C92.1054 90.1475 92.37 90.2597 92.6497 90.2883C92.9293 90.3168 93.2111 90.2603 93.4582 90.1261C93.9734 89.8625 94.4317 89.5002 94.8071 89.0597C94.9223 88.9478 95.0162 88.8159 95.0844 88.6705C95.1174 88.6002 95.129 88.5217 95.1176 88.4449C95.1062 88.3681 95.0724 88.2963 95.0204 88.2386" fill="#EB996E"/>
<path d="M91.7682 86.623C91.9548 86.5857 92.1414 87.8387 93.3678 88.5692C94.5941 89.2997 95.8845 88.9691 95.9164 89.1451C95.9484 89.2197 95.6552 89.433 95.0953 89.529C94.3588 89.6522 93.6025 89.5085 92.9625 89.1237C92.3526 88.754 91.9079 88.1642 91.7202 87.4761C91.5869 86.9589 91.6935 86.6284 91.7682 86.623Z" fill="#263238"/>
<path d="M89.2461 72.8186C89.1767 73.1492 88.0037 73.1705 86.676 73.5331C85.3484 73.8956 84.3033 74.4235 84.0847 74.1676C83.9834 74.0449 84.1327 73.7197 84.5273 73.3518C85.0628 72.8942 85.6952 72.5643 86.3769 72.387C87.0586 72.2096 87.7717 72.1895 88.4623 72.328C88.9848 72.456 89.2727 72.664 89.2461 72.8186Z" fill="#263238"/>
<path d="M100.006 72.2374C99.8408 72.5253 99.009 72.3707 98.0492 72.4987C97.0895 72.6266 96.311 72.9306 96.0871 72.6853C95.9858 72.5626 96.0871 72.2801 96.391 71.9815C96.8172 71.6064 97.3508 71.3751 97.9159 71.3203C98.4793 71.2485 99.0511 71.3528 99.5528 71.6189C99.9261 71.8428 100.081 72.0934 100.006 72.2374Z" fill="#263238"/>
<path d="M98.9878 99.809L101.888 106.143H112.488L118.391 125.925C119.852 143.264 121.51 161.846 121.419 169.167C109.924 175.752 90.494 175.07 71.9281 169.119C71.9281 169.119 75.026 135.853 75.026 135.267C75.026 134.68 68.489 110.873 68.489 110.873L77.3827 106.074L77.9426 102.875L98.9878 99.809Z" fill="#FF725E"/>
<g opacity="0.3">
<path d="M110.046 144.304C111.443 144.997 112.003 146.789 111.737 148.33C111.47 149.871 110.558 151.209 109.662 152.483C106.996 156.274 104.176 160.023 100.598 162.982C97.0203 165.941 92.6268 168.095 87.9933 168.191C82.2561 168.319 76.8388 165.301 72.6426 161.388V157.181L97.8308 144.304H110.046Z" fill="black"/>
</g>
<path d="M97.111 106.474C97.1016 106.167 97.0533 105.862 96.967 105.568C96.7963 104.845 96.5845 104.133 96.3325 103.435C96.079 102.739 95.7834 102.058 95.4474 101.398C95.3249 101.115 95.1672 100.848 94.9782 100.603C94.9196 100.635 95.5434 101.888 96.1299 103.509C96.7164 105.13 97.0257 106.49 97.111 106.474Z" fill="#263238"/>
<path d="M92.275 107.316C92.2745 107 92.2333 106.684 92.1523 106.378C91.9959 105.63 91.7911 104.892 91.5391 104.171C91.2874 103.449 90.9881 102.746 90.6434 102.064C90.5154 101.773 90.3505 101.498 90.1528 101.249C90.0942 101.281 90.75 102.566 91.3365 104.24C91.923 105.914 92.227 107.327 92.275 107.316Z" fill="#263238"/>
<path d="M86.1911 108.047C86.2343 107.753 86.2343 107.455 86.1911 107.162C86.1243 106.451 86.0013 105.747 85.8232 105.056C85.6516 104.364 85.4233 103.689 85.1407 103.035C85.0396 102.755 84.8996 102.491 84.7248 102.251C84.6609 102.278 85.2101 103.509 85.6153 105.109C86.0205 106.709 86.1272 108.047 86.1911 108.047Z" fill="#263238"/>
<path d="M115.768 122.944C115.86 123.073 115.941 123.211 116.008 123.355C116.233 123.75 116.436 124.158 116.615 124.576C117.295 126.12 117.82 127.727 118.183 129.375C118.724 131.802 119.093 134.264 119.287 136.743C119.543 139.537 119.665 142.609 120.001 145.808C120.641 152.243 121.244 158.071 121.457 162.305C121.569 164.438 121.606 166.144 121.563 167.328C121.563 167.919 121.515 168.394 121.494 168.693C121.488 168.852 121.471 169.011 121.441 169.167C121.428 169.007 121.428 168.847 121.441 168.687C121.441 168.378 121.473 167.919 121.441 167.328C121.441 166.144 121.377 164.432 121.244 162.321C120.982 158.093 120.353 152.27 119.713 145.834C119.372 142.635 119.255 139.532 119.015 136.743C118.84 134.267 118.5 131.806 117.996 129.375C117.647 127.735 117.152 126.129 116.519 124.576C116.301 124.043 116.093 123.616 115.96 123.339C115.885 123.213 115.821 123.081 115.768 122.944Z" fill="#263238"/>
<path d="M121.521 168.655L72.6585 169.188L71.9493 169.14C71.5868 171.364 72.2159 173.054 74.4767 173.87C74.4767 173.87 89.7208 179.399 97.3668 178.589C105.013 177.778 118.641 174.739 118.641 174.739C119.627 174.081 120.416 173.167 120.923 172.096C121.43 171.024 121.637 169.835 121.521 168.655Z" fill="#FF725E"/>
<path d="M75.4311 174.211C75.4311 174.211 75.1859 174.073 74.8979 173.726C74.5505 173.264 74.3018 172.736 74.1675 172.174C74.0296 171.614 74.0114 171.031 74.1141 170.463C74.1941 170.031 74.3221 169.786 74.3541 169.796C74.2695 170.567 74.2964 171.347 74.4341 172.11C74.6677 172.853 75.0033 173.56 75.4311 174.211Z" fill="#263238"/>
<path d="M80.827 175.896C80.827 175.896 80.5497 175.752 80.2191 175.363C79.8005 174.872 79.4866 174.3 79.2967 173.683C79.1028 173.067 79.0393 172.417 79.1101 171.774C79.115 171.505 79.1864 171.242 79.318 171.007C79.2204 171.878 79.304 172.761 79.5637 173.598C79.8233 174.436 80.2535 175.211 80.827 175.875V175.896Z" fill="#263238"/>
<path d="M86.0256 177.48C85.9403 177.48 85.9616 176.312 85.727 174.904C85.4924 173.497 85.1085 172.404 85.1938 172.372C85.9951 173.947 86.2876 175.731 86.0309 177.48H86.0256Z" fill="#263238"/>
<path d="M92.9358 178.557C92.9358 178.589 92.5465 178.583 92.1413 178.178C91.6667 177.645 91.317 177.013 91.1176 176.328C90.9036 175.653 90.815 174.945 90.8563 174.238C90.8494 173.944 90.9096 173.652 91.0323 173.385C91.0175 174.351 91.1359 175.314 91.3842 176.248C91.5764 176.895 91.8814 177.504 92.2853 178.045C92.4727 178.25 92.6924 178.423 92.9358 178.557Z" fill="#263238"/>
<path d="M97.7241 178.786C97.6388 178.786 97.9161 177.512 97.8468 175.944C97.7774 174.376 97.4149 173.139 97.4949 173.118C98.2549 174.917 98.3364 176.931 97.7241 178.786Z" fill="#263238"/>
<path d="M104.821 177.608C104.967 176.678 105.003 175.735 104.928 174.798C104.756 173.88 104.479 172.985 104.101 172.132C104.694 172.903 105.073 173.817 105.199 174.781C105.325 175.745 105.195 176.726 104.821 177.624V177.608Z" fill="#263238"/>
<path d="M111.369 176.083C111.58 175.255 111.681 174.404 111.667 173.55C111.562 172.701 111.342 171.87 111.011 171.081C111.038 171.081 111.241 171.289 111.459 171.716C111.736 172.283 111.901 172.899 111.945 173.529C111.99 174.158 111.912 174.79 111.715 175.39C111.657 175.645 111.538 175.883 111.369 176.083Z" fill="#263238"/>
<path d="M116.754 175.342C116.803 175.091 116.873 174.845 116.962 174.606C117.268 173.43 117.118 172.182 116.54 171.113C116.397 170.902 116.27 170.679 116.162 170.447C116.189 170.447 116.428 170.607 116.695 171.007C117.049 171.54 117.273 172.148 117.35 172.783C117.427 173.418 117.354 174.062 117.138 174.664C116.951 175.123 116.754 175.358 116.754 175.342Z" fill="#263238"/>
<path d="M102.566 144.187C102.693 144.174 102.817 144.142 102.934 144.091C103.163 144.016 103.467 143.883 103.883 143.707C104.906 143.224 105.863 142.611 106.73 141.883C107.593 141.154 108.359 140.315 109.007 139.388C109.202 139.108 109.38 138.816 109.54 138.514C109.607 138.407 109.661 138.293 109.7 138.172C109.668 138.172 109.391 138.615 108.873 139.297C108.2 140.186 107.431 140.998 106.581 141.718C105.726 142.433 104.796 143.053 103.808 143.568C103.051 143.958 102.555 144.155 102.566 144.187Z" fill="#FF725E"/>
<path d="M96.375 133.326C96.6809 133.091 96.9663 132.83 97.2281 132.547C97.7613 132.057 98.4491 131.374 99.2436 130.633C100.038 129.892 100.763 129.236 101.291 128.762C101.486 128.57 101.721 128.425 101.979 128.335C102.166 128.282 102.277 128.298 102.277 128.282C102.277 128.266 102.171 128.223 101.963 128.25C101.679 128.317 101.416 128.453 101.195 128.644C100.662 129.092 99.8888 129.711 99.0943 130.473C98.2998 131.236 97.6067 131.918 97.1215 132.441C96.8423 132.709 96.5921 133.005 96.375 133.326Z" fill="#FF725E"/>
<path d="M111.422 103.077C111.619 102.907 112.168 101.275 113.411 101.931C114.653 102.587 114.104 103.365 113.309 104.901C112.515 106.437 110.249 113.635 110.249 113.635C110.249 113.635 112.717 112.035 113.752 113.102C114.786 114.168 114.392 114.499 113.651 115.528L112.584 117.026C112.584 117.026 115.16 118.871 114.445 120.081C114.445 120.081 116.253 121.371 114.653 123.28C113.053 125.189 106.831 130.158 106.831 130.158L98.8064 125.024C98.8064 125.024 100.881 117.996 101.824 117.111C102.441 116.568 103.206 116.221 104.021 116.114L111.422 103.077Z" fill="#FFBE9D"/>
<path d="M98.8118 125.018L88.4678 137.309L95.1594 145.168L106.842 130.153L98.8118 125.018Z" fill="#FFBE9D"/>
<path d="M96.018 122.635L81.0885 136.973L70.4939 109.646C70.4939 109.646 59.5954 114.141 61.195 127.615C62.368 137.506 66.6336 153.806 71.4323 157.634C76.2311 161.462 81.819 165.243 89.1398 161.292C96.4606 157.341 111.673 142.561 111.673 142.561C111.673 142.561 104.949 126.176 96.018 122.635Z" fill="#FF725E"/>
<path d="M96.0178 122.635L96.4337 122.827C96.5723 122.896 96.743 122.96 96.9669 123.067L97.6441 123.435C99.11 124.319 100.451 125.395 101.632 126.634C104.762 129.807 108.452 135.235 111.635 142.561V142.475C108.724 145.269 105.477 148.276 101.894 151.412C100.097 152.974 98.2306 154.579 96.2418 156.157C94.2242 157.809 92.1031 159.33 89.8914 160.711C88.7422 161.418 87.5053 161.972 86.2123 162.358C84.8891 162.752 83.5038 162.895 82.1281 162.779C80.7233 162.646 79.3493 162.286 78.0598 161.713C76.7491 161.126 75.499 160.411 74.3274 159.58C73.7302 159.164 73.1384 158.732 72.5519 158.285C71.9545 157.858 71.3895 157.387 70.8616 156.877C70.353 156.339 69.8977 155.754 69.502 155.128C69.0917 154.502 68.7162 153.854 68.3769 153.187C67.0185 150.445 65.8982 147.59 65.0285 144.656C64.0084 141.341 63.1578 137.975 62.4798 134.573C62.1243 132.899 61.8311 131.234 61.6 129.577C61.3284 127.945 61.1875 126.294 61.1788 124.64C61.1916 123.017 61.423 121.403 61.8666 119.841C62.31 118.332 62.971 116.895 63.8288 115.576C65.4935 113.034 67.8225 110.996 70.563 109.684L70.4351 109.625L81.0297 136.999L81.067 137.095L81.1417 137.026L92.0988 126.447L95.0154 123.622L95.7672 122.891C95.9378 122.726 96.0178 122.635 96.0178 122.635L95.7619 122.87L95.0048 123.584L92.0722 126.378L81.0297 136.925H81.1417L70.5684 109.577L70.531 109.481L70.4404 109.524C69.0714 110.164 67.8003 110.995 66.6654 111.992C65.4921 113.011 64.4641 114.187 63.6102 115.485C62.7368 116.824 62.0666 118.285 61.6213 119.82C61.1712 121.391 60.9363 123.016 60.9229 124.651C60.9256 126.318 61.0665 127.982 61.3441 129.625C61.5894 131.284 61.8773 132.958 62.2185 134.632C62.9008 138.04 63.7532 141.413 64.7725 144.736C65.6491 147.67 66.7747 150.524 68.137 153.267C68.4821 153.938 68.8612 154.591 69.2727 155.224C69.6788 155.861 70.1448 156.457 70.6643 157.005C71.1973 157.525 71.7695 158.002 72.3759 158.434C72.9624 158.882 73.5596 159.314 74.1568 159.735C75.3489 160.566 76.6185 161.28 77.9478 161.868C79.2597 162.446 80.6573 162.806 82.0854 162.934C83.4862 163.053 84.8969 162.908 86.2443 162.507C87.5571 162.117 88.8122 161.554 89.9767 160.833C92.2041 159.445 94.3412 157.917 96.3751 156.258C98.3586 154.659 100.23 153.059 102.022 151.497C105.599 148.356 108.847 145.339 111.752 142.539L111.79 142.502V142.454C108.591 135.112 104.858 129.695 101.712 126.527C100.519 125.284 99.1632 124.208 97.6814 123.328L96.9936 122.966C96.7963 122.864 96.6203 122.8 96.4604 122.736L96.0178 122.635Z" fill="#263238"/>
<path d="M76.7641 148.879C76.8068 148.879 76.6628 148.138 76.6468 146.949C76.6397 146.251 76.6878 145.554 76.7908 144.864C76.9243 144.02 77.1349 143.19 77.42 142.385C77.7198 141.587 78.091 140.818 78.529 140.087C78.892 139.49 79.3021 138.923 79.7554 138.391C80.5285 137.485 81.1044 137.01 81.0724 136.973C80.9243 137.066 80.785 137.174 80.6565 137.293C80.2949 137.602 79.9546 137.935 79.6381 138.29C79.1655 138.816 78.7392 139.381 78.3637 139.98C77.9057 140.717 77.5218 141.498 77.2174 142.31C76.9293 143.129 76.7204 143.973 76.5935 144.832C76.4966 145.539 76.4628 146.252 76.4922 146.965C76.4922 147.269 76.5349 147.541 76.5562 147.775C76.5756 147.979 76.6059 148.182 76.6468 148.383C76.6668 148.552 76.7061 148.719 76.7641 148.879Z" fill="#263238"/>
<path d="M88.8142 129.999C88.8682 130.062 88.929 130.119 88.9955 130.169L89.5554 130.633C89.7953 130.83 90.0885 131.076 90.4298 131.369C90.771 131.662 91.1549 131.982 91.5655 132.366C92.4026 133.112 93.357 134.046 94.3808 135.117C95.4045 136.189 96.4709 137.421 97.5266 138.764C98.5824 140.108 99.4995 141.457 100.299 142.705C101.099 143.952 101.755 145.115 102.277 146.106C102.549 146.597 102.768 147.056 102.971 147.455C103.173 147.855 103.338 148.197 103.466 148.484L103.781 149.135C103.815 149.212 103.856 149.285 103.904 149.354C103.884 149.271 103.858 149.191 103.824 149.114C103.749 148.943 103.658 148.719 103.546 148.447C103.434 148.175 103.274 147.802 103.077 147.381C102.88 146.96 102.677 146.512 102.411 146.016C101.91 145.013 101.248 143.84 100.47 142.577C99.6914 141.313 98.7476 139.969 97.6972 138.61C96.6469 137.25 95.5645 136.034 94.5247 134.957C93.485 133.88 92.5199 132.968 91.6668 132.233C91.2509 131.854 90.851 131.539 90.5044 131.252C90.1579 130.964 89.8593 130.718 89.6033 130.548L89.0222 130.116C88.956 130.071 88.8865 130.032 88.8142 129.999Z" fill="#263238"/>
<path d="M117.463 51.1761C117.628 51.7947 123.424 128.841 123.424 128.841L126.986 128.879L120.433 50.6483L117.463 51.1761Z" fill="#E0E0E0"/>
<path d="M117.463 51.1762L118.172 51.0375L120.422 50.6163H120.465V50.659C121.27 59.5527 123.968 91.1819 127.124 128.82V128.842V128.991H126.97L123.408 128.953H123.28V128.826C120.044 85.6366 117.569 52.6584 117.458 51.1708C117.458 51.1708 117.458 51.3148 117.511 51.5761C117.564 51.8373 117.585 52.2159 117.628 52.7331C117.719 53.7622 117.847 55.2711 118.017 57.2173C118.327 61.1256 118.78 66.7721 119.34 73.7463C120.406 87.7587 121.899 107.167 123.557 128.783L123.419 128.655L126.98 128.692L126.842 128.842C123.685 91.2192 121.078 59.5633 120.39 50.659L120.433 50.6909L118.193 51.0695L117.463 51.1762Z" fill="#263238"/>
<path d="M134.28 113.997C134.28 113.997 128.868 104.65 128.351 104.219C127.834 103.787 119.964 101.286 119.249 101.691C118.535 102.096 117.271 105.317 117.383 105.781C117.495 106.245 118.449 106.815 118.449 106.815C118.449 106.815 118.583 108.649 119.596 109.311C119.475 109.705 119.48 110.126 119.608 110.518C119.737 110.909 119.984 111.251 120.316 111.497L121.483 112.344C121.483 112.344 120.806 113.267 121.27 113.907C121.734 114.547 122.576 114.877 122.966 114.637C123.355 114.397 123.147 114.104 123.147 114.104L126.81 113.843L126.98 115.762C126.938 115.528 130.206 119.153 130.206 119.153L131.337 122.31L137.165 118.625L134.28 113.997Z" fill="#FFBE9D"/>
<path d="M125.317 104.629C124.993 104.71 124.659 104.749 124.325 104.746C123.535 104.787 122.749 104.872 121.968 105.002C121.194 105.138 120.444 105.384 119.74 105.733C119.459 105.905 119.169 106.062 118.871 106.202C119.077 105.933 119.341 105.714 119.644 105.562C120.344 105.15 121.114 104.868 121.915 104.73C122.709 104.594 123.514 104.533 124.32 104.549C124.654 104.529 124.99 104.555 125.317 104.629Z" fill="#EB996E"/>
<path d="M125.818 107.034C125.524 107.182 125.21 107.287 124.885 107.343C124.304 107.498 123.494 107.69 122.619 107.956C121.881 108.181 121.167 108.477 120.486 108.841C120.217 109.023 119.931 109.18 119.633 109.311C119.839 109.05 120.095 108.832 120.385 108.671C121.061 108.248 121.791 107.918 122.555 107.69C123.312 107.466 124.081 107.288 124.859 107.156C125.171 107.072 125.494 107.03 125.818 107.034Z" fill="#EB996E"/>
<path d="M126.069 110.121C124.59 110.898 123.026 111.503 121.409 111.923C122.892 111.154 124.454 110.55 126.069 110.121Z" fill="#EB996E"/>
<path d="M120.454 103.904C120.534 103.904 120.593 104.213 120.588 104.586C120.582 104.96 120.513 105.269 120.438 105.269C120.364 105.269 120.305 104.96 120.31 104.586C120.316 104.213 120.38 103.904 120.454 103.904Z" fill="#EB996E"/>
<path d="M121.92 104.848C121.92 104.922 121.627 105.05 121.243 104.928C120.859 104.805 120.673 104.517 120.71 104.469C120.747 104.421 120.998 104.57 121.307 104.661C121.616 104.752 121.91 104.794 121.92 104.848Z" fill="#EB996E"/>
<path d="M118.673 107.476C118.631 107.54 118.343 107.338 118.327 106.943C118.311 106.549 118.577 106.319 118.631 106.378C118.684 106.437 118.583 106.65 118.604 106.911C118.625 107.172 118.732 107.423 118.673 107.476Z" fill="#FF725E"/>
<path d="M129.913 112.211C129.866 111.803 129.771 111.403 129.63 111.017C129.348 110.398 128.836 110.116 128.873 110.041C128.911 109.966 129.044 110.041 129.252 110.169C129.526 110.346 129.744 110.598 129.881 110.894C130.024 111.187 130.084 111.514 130.052 111.838C130.025 112.089 129.945 112.222 129.913 112.211Z" fill="#EB996E"/>
<path d="M129.215 108.447C129.14 108.447 129.161 108.015 128.948 107.567C128.735 107.119 128.415 106.863 128.457 106.794C128.5 106.725 128.953 106.911 129.199 107.45C129.444 107.988 129.289 108.473 129.215 108.447Z" fill="#EB996E"/>
<path d="M128.623 105.914C128.548 105.914 128.527 105.536 128.297 105.168C128.068 104.8 127.764 104.597 127.764 104.522C127.764 104.448 128.239 104.56 128.516 105.024C128.793 105.488 128.697 105.914 128.623 105.914Z" fill="#EB996E"/>
<path d="M117.895 131.662C117.452 134.093 116.402 142.395 122.358 143.926C122.609 143.959 122.862 143.972 123.115 143.963C124.149 143.883 128.303 143.174 127.812 136.807C127.364 130.99 126.559 122.113 126.255 118.849C126.243 118.687 126.197 118.529 126.12 118.385C126.043 118.242 125.936 118.116 125.808 118.015C125.68 117.915 125.532 117.842 125.374 117.802C125.216 117.762 125.051 117.756 124.89 117.783L123.291 118.05C122.997 118.099 122.733 118.259 122.552 118.495C122.371 118.731 122.287 119.028 122.315 119.324C122.646 122.694 123.616 132.787 123.675 133.843C123.755 135.224 124.629 139.388 123.024 140.055C121.419 140.721 120.764 135.474 120.961 132.259C120.972 132.095 120.948 131.931 120.89 131.777C120.832 131.624 120.742 131.484 120.625 131.369C120.408 131.132 120.141 130.947 119.842 130.828C119.544 130.709 119.223 130.659 118.903 130.681C118.651 130.712 118.416 130.825 118.234 131.002C118.052 131.179 117.933 131.411 117.895 131.662Z" fill="#455A64"/>
<path d="M101.622 65.6631C99.4887 63.3284 96.6358 61.7743 93.5173 61.2482L80.0541 64.1221L76.5297 66.6761C76.1991 65.839 75.9965 65.3218 75.9965 65.3218C74.6315 64.4474 70.9472 62.7305 68.1372 66.2176C67.1241 67.4813 66.4577 70.6538 66.5696 72.2694C66.6123 72.8772 66.7296 73.6184 66.2497 73.9969C66.0717 74.1167 65.8727 74.2017 65.6632 74.2475C63.9823 74.8374 62.5871 76.0418 61.7581 77.6186C60.9292 79.1954 60.728 81.0276 61.195 82.7467C61.2837 82.9651 61.329 83.1987 61.3283 83.4345C61.248 83.798 61.0626 84.13 60.7951 84.3889C60.061 85.3476 59.6319 86.5048 59.5634 87.7103C59.495 88.9159 59.7904 90.1142 60.4112 91.1498C60.8741 91.7332 61.2445 92.3841 61.5096 93.08C61.8295 94.3703 60.9764 95.618 60.3259 96.7804C58.3851 100.267 58.3211 105.093 61.179 107.871C61.8775 108.548 62.7466 109.129 63.0665 110.046C63.1892 110.504 63.2537 110.975 63.2585 111.449C63.4451 113.848 64.938 116.418 67.3214 116.722C68.6437 116.893 70.19 116.391 71.1978 117.255C71.5892 117.687 71.9128 118.176 72.1575 118.705C72.7399 119.66 73.6427 120.377 74.7047 120.729C75.7667 121.08 76.919 121.042 77.9559 120.623C78.9929 120.203 79.847 119.429 80.3661 118.438C80.8852 117.447 81.0354 116.304 80.79 115.213C82.0208 114.612 83.0361 113.646 83.6975 112.446C84.3588 111.247 84.6338 109.872 84.485 108.511C84.485 108.511 82.7041 100.188 83.264 97.8468C83.8238 95.5061 81.8937 90.7819 80.8273 88.4999C79.7609 86.2178 80.3261 80.6459 80.3741 78.4438C80.333 77.8158 80.2184 77.1949 80.0328 76.5936C79.8889 76.0604 79.7182 75.4845 79.4996 74.8554C79.4015 74.2747 79.3356 73.6891 79.3023 73.1012C79.2767 72.6192 79.3634 72.1378 79.5556 71.6951C79.7479 71.2524 80.0404 70.8604 80.4102 70.5502C80.7799 70.2399 81.2167 70.0199 81.686 69.9074C82.1554 69.7949 82.6445 69.793 83.1147 69.902C83.6008 70.0227 84.1023 70.0694 84.6023 70.0406C85.4105 69.9879 86.1953 69.748 86.8949 69.3399C87.5944 68.9318 88.1896 68.3667 88.6333 67.6892C89.6546 68.5843 90.899 69.1866 92.2346 69.4326C93.5702 69.6785 94.9475 69.5588 96.2207 69.0862C97.3363 70.5167 98.6382 71.7917 100.092 72.8772C101.564 73.9684 103.408 74.4323 105.221 74.1675C105.004 71.0105 103.737 68.0168 101.622 65.6631Z" fill="#263238"/>
<path d="M100.417 68.2171C100.39 68.2171 100.417 67.9079 100.31 67.364C100.171 66.598 99.8687 65.8708 99.4249 65.2312C98.7609 64.2504 97.7711 63.5363 96.6309 63.2157C95.9249 63.0213 95.186 62.9763 94.4616 63.0838C93.7372 63.1912 93.0432 63.4486 92.424 63.8396L92.328 63.8982L92.2267 63.7916C91.6437 63.2027 90.9728 62.7081 90.2379 62.3253C88.6486 61.5137 86.832 61.2619 85.0819 61.6108C83.6583 61.9184 82.3501 62.6206 81.3069 63.637C80.6005 64.3204 80.021 65.1237 79.5953 66.0097C79.3074 66.6442 79.2061 67.0227 79.1741 67.0121C79.1881 66.9181 79.2095 66.8254 79.2381 66.7348C79.3042 66.4722 79.3916 66.2155 79.4993 65.967C79.993 64.8179 80.7511 63.8017 81.712 63.0011C82.6728 62.2005 83.8092 61.6383 85.0286 61.3602C86.8359 60.9834 88.7178 61.2374 90.3605 62.08C91.1264 62.4732 91.8233 62.9882 92.424 63.605H92.2534C92.9049 63.1961 93.6353 62.9292 94.3969 62.8217C95.1586 62.7142 95.9343 62.7685 96.6736 62.9811C97.8579 63.3241 98.8796 64.081 99.5528 65.1139C99.9992 65.7881 100.284 66.5564 100.385 67.3587C100.416 67.5722 100.427 67.7882 100.417 68.0038C100.425 68.0747 100.425 68.1463 100.417 68.2171Z" fill="#455A64"/>
<path d="M62.0532 82.8374C63.1497 82.7087 64.2316 82.4766 65.2844 82.1442C67.813 81.2927 70.0163 79.6798 71.5921 77.5267L71.864 77.1375L71.9067 77.0842H71.9653C73.3556 76.9104 74.6653 76.3361 75.735 75.4313C76.6135 74.7028 77.3246 73.7935 77.8198 72.7653C78.2574 71.8123 78.5193 70.7881 78.593 69.7421C78.6055 69.8144 78.6055 69.8883 78.593 69.9607C78.6049 70.1702 78.6049 70.3803 78.593 70.5898C78.5212 71.3738 78.3175 72.1399 77.9905 72.8559C77.5082 73.9237 76.792 74.8695 75.895 75.6232C74.7967 76.576 73.4401 77.181 71.9973 77.3614L72.0986 77.3028L71.816 77.6974C70.2128 79.9001 67.9433 81.5284 65.343 82.3415C64.5651 82.59 63.7623 82.7528 62.949 82.8267C62.6611 82.8587 62.4158 82.8267 62.2878 82.8587C62.209 82.8668 62.1293 82.8596 62.0532 82.8374Z" fill="#455A64"/>
</svg>
